<?xml version="1.0" encoding="UTF-8"?>
<svg version="1.1" xmlns="http://www.w3.org/2000/svg" width="256" height="256">
<path d="M0 0 C1.65750526 -0.002062 1.65750526 -0.002062 3.34849548 -0.00416565 C4.56625168 -0.00057037 5.78400787 0.0030249 7.03866577 0.00672913 C8.31667557 0.0065831 9.59468536 0.00643707 10.91142273 0.00628662 C14.4215369 0.00599903 17.93161709 0.0118896 21.44172335 0.01886058 C25.10793671 0.02510045 28.7741508 0.02569842 32.44036865 0.02688599 C39.38538077 0.02999743 46.3303772 0.0382083 53.2753824 0.04823548 C61.18095939 0.05940241 69.08653712 0.06490853 76.99212003 0.06993091 C93.25683093 0.08039106 109.52152503 0.09818769 125.78622437 0.12025452 C126.77622437 6.06025452 126.77622437 6.06025452 127.78622437 12.12025452 C128.44622437 12.12025452 129.10622437 12.12025452 129.78622437 12.12025452 C130.11622437 14.10025452 130.44622437 16.08025452 130.78622437 18.12025452 C131.77622437 18.45025452 132.76622437 18.78025452 133.78622437 19.12025452 C133.78622437 20.11025452 133.78622437 21.10025452 133.78622437 22.12025452 C134.44622437 22.12025452 135.10622437 22.12025452 135.78622437 22.12025452 C137.91122437 23.99525452 137.91122437 23.99525452 139.78622437 26.12025452 C139.78622437 26.78025452 139.78622437 27.44025452 139.78622437 28.12025452 C140.59059937 28.24400452 141.39497437 28.36775452 142.22372437 28.49525452 C143.06934937 28.70150452 143.91497437 28.90775452 144.78622437 29.12025452 C145.11622437 29.78025452 145.44622437 30.44025452 145.78622437 31.12025452 C146.77622437 31.45025452 147.76622437 31.78025452 148.78622437 32.12025452 C148.78622437 32.78025452 148.78622437 33.44025452 148.78622437 34.12025452 C150.10622437 34.45025452 151.42622437 34.78025452 152.78622437 35.12025452 C152.78622437 35.78025452 152.78622437 36.44025452 152.78622437 37.12025452 C155.42622437 37.45025452 158.06622437 37.78025452 160.78622437 38.12025452 C160.78622437 38.78025452 160.78622437 39.44025452 160.78622437 40.12025452 C163.75622437 40.45025452 166.72622437 40.78025452 169.78622437 41.12025452 C170.96936192 44.66966718 170.92962211 47.88448342 170.91903687 51.57728577 C170.91999359 52.31669907 170.92095032 53.05611237 170.92193604 53.81793213 C170.9226169 55.38900334 170.92076913 56.96007737 170.91659546 58.53114319 C170.91132941 60.88578502 170.91649953 63.24022867 170.92294312 65.59486389 C170.92659569 74.81870595 170.59952556 83.92661633 169.78622437 93.12025452 C169.12622437 93.12025452 168.46622437 93.12025452 167.78622437 93.12025452 C167.79782593 93.68873108 167.80942749 94.25720764 167.82138062 94.84291077 C167.87845631 99.72695936 167.60579208 104.30529416 166.78622437 109.12025452 C166.12622437 109.12025452 165.46622437 109.12025452 164.78622437 109.12025452 C164.45622437 113.08025452 164.12622437 117.04025452 163.78622437 121.12025452 C163.12622437 121.12025452 162.46622437 121.12025452 161.78622437 121.12025452 C161.45622437 123.76025452 161.12622437 126.40025452 160.78622437 129.12025452 C160.12622437 129.12025452 159.46622437 129.12025452 158.78622437 129.12025452 C158.45622437 132.09025452 158.12622437 135.06025452 157.78622437 138.12025452 C157.12622437 138.12025452 156.46622437 138.12025452 155.78622437 138.12025452 C155.45622437 141.09025452 155.12622437 144.06025452 154.78622437 147.12025452 C154.12622437 147.12025452 153.46622437 147.12025452 152.78622437 147.12025452 C152.45622437 149.10025452 152.12622437 151.08025452 151.78622437 153.12025452 C151.12622437 153.12025452 150.46622437 153.12025452 149.78622437 153.12025452 C149.12622437 156.42025452 148.46622437 159.72025452 147.78622437 163.12025452 C147.12622437 163.12025452 146.46622437 163.12025452 145.78622437 163.12025452 C145.45622437 164.77025452 145.12622437 166.42025452 144.78622437 168.12025452 C144.12622437 168.12025452 143.46622437 168.12025452 142.78622437 168.12025452 C142.45622437 170.10025452 142.12622437 172.08025452 141.78622437 174.12025452 C141.12622437 174.12025452 140.46622437 174.12025452 139.78622437 174.12025452 C139.45622437 175.77025452 139.12622437 177.42025452 138.78622437 179.12025452 C138.12622437 179.12025452 137.46622437 179.12025452 136.78622437 179.12025452 C136.60059937 180.32681702 136.60059937 180.32681702 136.41122437 181.55775452 C136.20497437 182.40337952 135.99872437 183.24900452 135.78622437 184.12025452 C135.12622437 184.45025452 134.46622437 184.78025452 133.78622437 185.12025452 C133.45622437 186.11025452 133.12622437 187.10025452 132.78622437 188.12025452 C132.12622437 188.12025452 131.46622437 188.12025452 130.78622437 188.12025452 C130.63153687 189.26494202 130.63153687 189.26494202 130.47372437 190.43275452 C129.72395245 193.3636811 128.95149169 194.13542613 126.78622437 196.12025452 C126.45622437 197.11025452 126.12622437 198.10025452 125.78622437 199.12025452 C124.1195577 200.45358785 122.45289103 201.78692118 120.78622437 203.12025452 C120.45622437 204.11025452 120.12622437 205.10025452 119.78622437 206.12025452 C118.34872437 207.80775452 118.34872437 207.80775452 116.78622437 209.12025452 C116.12622437 209.12025452 115.46622437 209.12025452 114.78622437 209.12025452 C114.78622437 210.11025452 114.78622437 211.10025452 114.78622437 212.12025452 C113.79622437 212.45025452 112.80622437 212.78025452 111.78622437 213.12025452 C110.41548651 214.75629647 109.08567181 216.42703513 107.78622437 218.12025452 C105.66122437 220.43275452 105.66122437 220.43275452 103.78622437 222.12025452 C103.12622437 222.12025452 102.46622437 222.12025452 101.78622437 222.12025452 C101.45622437 223.11025452 101.12622437 224.10025452 100.78622437 225.12025452 C100.12622437 225.12025452 99.46622437 225.12025452 98.78622437 225.12025452 C98.45622437 226.11025452 98.12622437 227.10025452 97.78622437 228.12025452 C97.12622437 228.12025452 96.46622437 228.12025452 95.78622437 228.12025452 C95.45622437 229.11025452 95.12622437 230.10025452 94.78622437 231.12025452 C92.4945479 234.09943392 90.45086491 234.62503282 86.78622437 235.12025452 C86.45622437 236.11025452 86.12622437 237.10025452 85.78622437 238.12025452 C85.12622437 238.12025452 84.46622437 238.12025452 83.78622437 238.12025452 C83.78622437 238.78025452 83.78622437 239.44025452 83.78622437 240.12025452 C83.14684937 240.22337952 82.50747437 240.32650452 81.84872437 240.43275452 C81.16809937 240.65962952 80.48747437 240.88650452 79.78622437 241.12025452 C79.45622437 242.11025452 79.12622437 243.10025452 78.78622437 244.12025452 C78.12622437 244.12025452 77.46622437 244.12025452 76.78622437 244.12025452 C76.78622437 244.78025452 76.78622437 245.44025452 76.78622437 246.12025452 C75.79622437 246.45025452 74.80622437 246.78025452 73.78622437 247.12025452 C73.45622437 247.78025452 73.12622437 248.44025452 72.78622437 249.12025452 C70.22372437 249.74525452 70.22372437 249.74525452 67.78622437 250.12025452 C67.78622437 250.78025452 67.78622437 251.44025452 67.78622437 252.12025452 C66.79622437 252.45025452 65.80622437 252.78025452 64.78622437 253.12025452 C64.45622437 253.78025452 64.12622437 254.44025452 63.78622437 255.12025452 C60.72372437 255.74525452 60.72372437 255.74525452 57.78622437 256.12025452 C57.45622437 255.13025452 57.12622437 254.14025452 56.78622437 253.12025452 C55.13622437 252.79025452 53.48622437 252.46025452 51.78622437 252.12025452 C51.78622437 251.46025452 51.78622437 250.80025452 51.78622437 250.12025452 C50.46622437 249.79025452 49.14622437 249.46025452 47.78622437 249.12025452 C47.78622437 248.46025452 47.78622437 247.80025452 47.78622437 247.12025452 C46.98184937 246.99650452 46.17747437 246.87275452 45.34872437 246.74525452 C44.50309937 246.53900452 43.65747437 246.33275452 42.78622437 246.12025452 C42.45622437 245.46025452 42.12622437 244.80025452 41.78622437 244.12025452 C40.79622437 243.79025452 39.80622437 243.46025452 38.78622437 243.12025452 C38.78622437 242.46025452 38.78622437 241.80025452 38.78622437 241.12025452 C37.79622437 240.79025452 36.80622437 240.46025452 35.78622437 240.12025452 C35.45622437 239.46025452 35.12622437 238.80025452 34.78622437 238.12025452 C33.79622437 237.79025452 32.80622437 237.46025452 31.78622437 237.12025452 C31.78622437 236.46025452 31.78622437 235.80025452 31.78622437 235.12025452 C30.79622437 234.79025452 29.80622437 234.46025452 28.78622437 234.12025452 C28.78622437 233.46025452 28.78622437 232.80025452 28.78622437 232.12025452 C26.80622437 231.46025452 24.82622437 230.80025452 22.78622437 230.12025452 C22.78622437 229.46025452 22.78622437 228.80025452 22.78622437 228.12025452 C21.79622437 227.79025452 20.80622437 227.46025452 19.78622437 227.12025452 C19.78622437 226.46025452 19.78622437 225.80025452 19.78622437 225.12025452 C19.00247437 225.05837952 18.21872437 224.99650452 17.41122437 224.93275452 C16.11184937 224.53056702 16.11184937 224.53056702 14.78622437 224.12025452 C14.07374705 222.47265071 13.41222054 220.80261923 12.78622437 219.12025452 C11.94059937 218.46025452 11.09497437 217.80025452 10.22372437 217.12025452 C7.78622437 215.12025452 7.78622437 215.12025452 6.97372437 212.37025452 C6.91184937 211.62775452 6.84997437 210.88525452 6.78622437 210.12025452 C5.79622437 209.79025452 4.80622437 209.46025452 3.78622437 209.12025452 C3.78622437 208.46025452 3.78622437 207.80025452 3.78622437 207.12025452 C3.02309937 206.85212952 2.25997437 206.58400452 1.47372437 206.30775452 C-1.17292735 205.13830376 -2.5093318 204.4212537 -4.21377563 202.12025452 C-4.90127563 199.43275452 -4.90127563 199.43275452 -5.21377563 197.12025452 C-5.87377563 197.12025452 -6.53377563 197.12025452 -7.21377563 197.12025452 C-7.87377563 195.14025452 -8.53377563 193.16025452 -9.21377563 191.12025452 C-9.87377563 191.12025452 -10.53377563 191.12025452 -11.21377563 191.12025452 C-11.54377563 190.13025452 -11.87377563 189.14025452 -12.21377563 188.12025452 C-12.87377563 187.79025452 -13.53377563 187.46025452 -14.21377563 187.12025452 C-14.83877563 184.55775452 -14.83877563 184.55775452 -15.21377563 182.12025452 C-15.87377563 182.12025452 -16.53377563 182.12025452 -17.21377563 182.12025452 C-17.54377563 181.13025452 -17.87377563 180.14025452 -18.21377563 179.12025452 C-18.87377563 178.79025452 -19.53377563 178.46025452 -20.21377563 178.12025452 C-20.83877563 175.05775452 -20.83877563 175.05775452 -21.21377563 172.12025452 C-21.87377563 172.12025452 -22.53377563 172.12025452 -23.21377563 172.12025452 C-23.54377563 170.14025452 -23.87377563 168.16025452 -24.21377563 166.12025452 C-25.20377563 165.79025452 -26.19377563 165.46025452 -27.21377563 165.12025452 C-27.21377563 164.13025452 -27.21377563 163.14025452 -27.21377563 162.12025452 C-27.87377563 162.12025452 -28.53377563 162.12025452 -29.21377563 162.12025452 C-30.20377563 157.17025452 -30.20377563 157.17025452 -31.21377563 152.12025452 C-31.87377563 152.12025452 -32.53377563 152.12025452 -33.21377563 152.12025452 C-33.54377563 149.48025452 -33.87377563 146.84025452 -34.21377563 144.12025452 C-34.87377563 144.12025452 -35.53377563 144.12025452 -36.21377563 144.12025452 C-36.54377563 141.81025452 -36.87377563 139.50025452 -37.21377563 137.12025452 C-37.87377563 137.12025452 -38.53377563 137.12025452 -39.21377563 137.12025452 C-39.54377563 134.15025452 -39.87377563 131.18025452 -40.21377563 128.12025452 C-40.87377563 128.12025452 -41.53377563 128.12025452 -42.21377563 128.12025452 C-42.54377563 124.82025452 -42.87377563 121.52025452 -43.21377563 118.12025452 C-43.87377563 118.12025452 -44.53377563 118.12025452 -45.21377563 118.12025452 C-46.16639051 113.35718014 -46.29710921 108.95360172 -46.21377563 104.12025452 C-46.87377563 104.12025452 -47.53377563 104.12025452 -48.21377563 104.12025452 C-49.20628109 98.41334817 -49.31855076 92.90616962 -49.21377563 87.12025452 C-49.87377563 87.12025452 -50.53377563 87.12025452 -51.21377563 87.12025452 C-53.00735759 54.10594402 -53.00735759 54.10594402 -51.21377563 43.12025452 C-50.55377563 43.12025452 -49.89377563 43.12025452 -49.21377563 43.12025452 C-49.21377563 42.46025452 -49.21377563 41.80025452 -49.21377563 41.12025452 C-45.74877563 40.62525452 -45.74877563 40.62525452 -42.21377563 40.12025452 C-42.21377563 39.46025452 -42.21377563 38.80025452 -42.21377563 38.12025452 C-39.57377563 37.79025452 -36.93377563 37.46025452 -34.21377563 37.12025452 C-34.21377563 36.46025452 -34.21377563 35.80025452 -34.21377563 35.12025452 C-31.73877563 34.62525452 -31.73877563 34.62525452 -29.21377563 34.12025452 C-29.21377563 33.46025452 -29.21377563 32.80025452 -29.21377563 32.12025452 C-27.56377563 31.79025452 -25.91377563 31.46025452 -24.21377563 31.12025452 C-23.88377563 30.13025452 -23.55377563 29.14025452 -23.21377563 28.12025452 C-22.55377563 28.12025452 -21.89377563 28.12025452 -21.21377563 28.12025452 C-20.88377563 27.13025452 -20.55377563 26.14025452 -20.21377563 25.12025452 C-18.56737599 23.76197481 -16.90081756 22.42771201 -15.21377563 21.12025452 C-14.88377563 20.46025452 -14.55377563 19.80025452 -14.21377563 19.12025452 C-13.55377563 19.12025452 -12.89377563 19.12025452 -12.21377563 19.12025452 C-11.88377563 17.80025452 -11.55377563 16.48025452 -11.21377563 15.12025452 C-10.55377563 15.12025452 -9.89377563 15.12025452 -9.21377563 15.12025452 C-9.1531897 14.52857483 -9.09260376 13.93689514 -9.03018188 13.32728577 C-8.0517157 4.09959697 -8.0517157 4.09959697 -7.21377563 1.12025452 C-4.65661635 -0.15832513 -2.8638262 -0.00273788 0 0 Z M1.78622437 13.12025452 C1.32099374 15.01558793 1.32099374 15.01558793 1.16122437 17.18275452 C0.97559937 19.13181702 0.97559937 19.13181702 0.78622437 21.12025452 C-0.20377563 21.45025452 -1.19377563 21.78025452 -2.21377563 22.12025452 C-2.21377563 23.11025452 -2.21377563 24.10025452 -2.21377563 25.12025452 C-3.20377563 25.45025452 -4.19377563 25.78025452 -5.21377563 26.12025452 C-5.21377563 26.78025452 -5.21377563 27.44025452 -5.21377563 28.12025452 C-6.20377563 28.45025452 -7.19377563 28.78025452 -8.21377563 29.12025452 C-9.55800903 30.77814237 -10.88996047 32.44601769 -12.21377563 34.12025452 C-13.86911559 35.46762425 -15.53390337 36.80359787 -17.21377563 38.12025452 C-17.54377563 38.78025452 -17.87377563 39.44025452 -18.21377563 40.12025452 C-19.20377563 40.45025452 -20.19377563 40.78025452 -21.21377563 41.12025452 C-21.21377563 41.78025452 -21.21377563 42.44025452 -21.21377563 43.12025452 C-22.86377563 43.45025452 -24.51377563 43.78025452 -26.21377563 44.12025452 C-26.21377563 44.78025452 -26.21377563 45.44025452 -26.21377563 46.12025452 C-28.68877563 46.61525452 -28.68877563 46.61525452 -31.21377563 47.12025452 C-31.21377563 47.78025452 -31.21377563 48.44025452 -31.21377563 49.12025452 C-33.26455688 49.3481191 -35.31533813 49.57598368 -37.36611938 49.80384827 C-39.22517792 49.93912066 -39.22517792 49.93912066 -40.21377563 51.12025452 C-40.31337683 52.69846369 -40.34458026 54.28109431 -40.34658813 55.86244202 C-40.3478772 56.84728577 -40.34916626 57.83212952 -40.35049438 58.84681702 C-40.3466272 59.88580139 -40.34276001 60.92478577 -40.33877563 61.99525452 C-40.34264282 62.99556702 -40.34651001 63.99587952 -40.35049438 65.02650452 C-40.34177438 71.77578658 -39.9401454 78.41084813 -39.21377563 85.12025452 C-38.55377563 85.12025452 -37.89377563 85.12025452 -37.21377563 85.12025452 C-37.2253772 85.67712952 -37.23697876 86.23400452 -37.24893188 86.80775452 C-37.31053997 92.01803794 -36.96376908 96.96404961 -36.21377563 102.12025452 C-35.55377563 102.12025452 -34.89377563 102.12025452 -34.21377563 102.12025452 C-33.88377563 106.41025452 -33.55377563 110.70025452 -33.21377563 115.12025452 C-32.55377563 115.12025452 -31.89377563 115.12025452 -31.21377563 115.12025452 C-31.1531897 115.79572327 -31.09260376 116.47119202 -31.03018188 117.16712952 C-30.94639282 118.05916077 -30.86260376 118.95119202 -30.77627563 119.87025452 C-30.6950647 120.75197327 -30.61385376 121.63369202 -30.53018188 122.54212952 C-30.25139099 124.81375904 -29.82586986 126.91877275 -29.21377563 129.12025452 C-28.55377563 129.12025452 -27.89377563 129.12025452 -27.21377563 129.12025452 C-26.88377563 131.76025452 -26.55377563 134.40025452 -26.21377563 137.12025452 C-25.55377563 137.12025452 -24.89377563 137.12025452 -24.21377563 137.12025452 C-23.88377563 139.43025452 -23.55377563 141.74025452 -23.21377563 144.12025452 C-22.55377563 144.12025452 -21.89377563 144.12025452 -21.21377563 144.12025452 C-20.88377563 146.76025452 -20.55377563 149.40025452 -20.21377563 152.12025452 C-19.55377563 152.12025452 -18.89377563 152.12025452 -18.21377563 152.12025452 C-17.88377563 153.77025452 -17.55377563 155.42025452 -17.21377563 157.12025452 C-16.55377563 157.12025452 -15.89377563 157.12025452 -15.21377563 157.12025452 C-14.88377563 159.10025452 -14.55377563 161.08025452 -14.21377563 163.12025452 C-13.55377563 163.12025452 -12.89377563 163.12025452 -12.21377563 163.12025452 C-11.88377563 165.10025452 -11.55377563 167.08025452 -11.21377563 169.12025452 C-10.55377563 169.12025452 -9.89377563 169.12025452 -9.21377563 169.12025452 C-9.09260376 169.68615295 -8.97143188 170.25205139 -8.84658813 170.83509827 C-8.67901001 171.56857483 -8.51143188 172.30205139 -8.33877563 173.05775452 C-8.09514282 174.15410217 -8.09514282 174.15410217 -7.84658813 175.27259827 C-7.3841604 177.32725746 -7.3841604 177.32725746 -5.21377563 178.12025452 C-4.88377563 179.11025452 -4.55377563 180.10025452 -4.21377563 181.12025452 C-3.55377563 181.45025452 -2.89377563 181.78025452 -2.21377563 182.12025452 C-1.88377563 183.11025452 -1.55377563 184.10025452 -1.21377563 185.12025452 C-0.55377563 185.12025452 0.10622437 185.12025452 0.78622437 185.12025452 C1.11622437 186.11025452 1.44622437 187.10025452 1.78622437 188.12025452 C2.44622437 188.12025452 3.10622437 188.12025452 3.78622437 188.12025452 C3.90997437 188.92462952 4.03372437 189.72900452 4.16122437 190.55775452 C4.36747437 191.40337952 4.57372437 192.24900452 4.78622437 193.12025452 C5.44622437 193.45025452 6.10622437 193.78025452 6.78622437 194.12025452 C7.11622437 195.11025452 7.44622437 196.10025452 7.78622437 197.12025452 C8.44622437 197.12025452 9.10622437 197.12025452 9.78622437 197.12025452 C10.11622437 198.11025452 10.44622437 199.10025452 10.78622437 200.12025452 C11.44622437 200.12025452 12.10622437 200.12025452 12.78622437 200.12025452 C13.44622437 201.77025452 14.10622437 203.42025452 14.78622437 205.12025452 C15.44622437 205.12025452 16.10622437 205.12025452 16.78622437 205.12025452 C16.84809937 205.69775452 16.90997437 206.27525452 16.97372437 206.87025452 C18.1106097 210.01855236 20.15529665 211.10117046 22.78622437 213.12025452 C23.77622437 214.45056702 23.77622437 214.45056702 24.78622437 215.80775452 C27.09586543 218.47827699 28.33521863 218.83267071 31.78622437 219.12025452 C32.11622437 220.11025452 32.44622437 221.10025452 32.78622437 222.12025452 C33.44622437 222.12025452 34.10622437 222.12025452 34.78622437 222.12025452 C35.01309937 222.92462952 35.23997437 223.72900452 35.47372437 224.55775452 C36.12341187 225.82619202 36.12341187 225.82619202 36.78622437 227.12025452 C39.33397743 228.01411615 39.33397743 228.01411615 41.78622437 228.12025452 C42.11622437 229.11025452 42.44622437 230.10025452 42.78622437 231.12025452 C44.43622437 231.45025452 46.08622437 231.78025452 47.78622437 232.12025452 C48.11622437 233.11025452 48.44622437 234.10025452 48.78622437 235.12025452 C49.44622437 235.12025452 50.10622437 235.12025452 50.78622437 235.12025452 C50.78622437 235.78025452 50.78622437 236.44025452 50.78622437 237.12025452 C51.77622437 237.45025452 52.76622437 237.78025452 53.78622437 238.12025452 C54.11622437 238.78025452 54.44622437 239.44025452 54.78622437 240.12025452 C58.34315114 240.97082396 60.27893015 241.28935259 63.78622437 240.12025452 C64.11622437 239.46025452 64.44622437 238.80025452 64.78622437 238.12025452 C65.77622437 237.79025452 66.76622437 237.46025452 67.78622437 237.12025452 C67.78622437 236.46025452 67.78622437 235.80025452 67.78622437 235.12025452 C68.59059937 234.99650452 69.39497437 234.87275452 70.22372437 234.74525452 C71.06934937 234.53900452 71.91497437 234.33275452 72.78622437 234.12025452 C73.11622437 233.46025452 73.44622437 232.80025452 73.78622437 232.12025452 C74.56997437 231.81087952 75.35372437 231.50150452 76.16122437 231.18275452 C78.76210273 230.13001803 80.06250241 229.29758751 81.78622437 227.12025452 C81.78622437 226.46025452 81.78622437 225.80025452 81.78622437 225.12025452 C82.36372437 225.05837952 82.94122437 224.99650452 83.53622437 224.93275452 C86.68452221 223.79586918 87.76714031 221.75118223 89.78622437 219.12025452 C91.45289103 217.78692118 93.1195577 216.45358785 94.78622437 215.12025452 C95.74528687 213.91369202 95.74528687 213.91369202 96.72372437 212.68275452 C99.11378427 209.71328614 101.86219224 207.55694795 104.78622437 205.12025452 C108.12410992 201.65304429 108.12410992 201.65304429 108.78622437 197.12025452 C109.77622437 196.79025452 110.76622437 196.46025452 111.78622437 196.12025452 C111.78622437 195.46025452 111.78622437 194.80025452 111.78622437 194.12025452 C112.77622437 193.79025452 113.76622437 193.46025452 114.78622437 193.12025452 C114.78622437 192.13025452 114.78622437 191.14025452 114.78622437 190.12025452 C115.44622437 190.12025452 116.10622437 190.12025452 116.78622437 190.12025452 C117.11622437 188.47025452 117.44622437 186.82025452 117.78622437 185.12025452 C118.77622437 184.79025452 119.76622437 184.46025452 120.78622437 184.12025452 C120.78622437 183.46025452 120.78622437 182.80025452 120.78622437 182.12025452 C121.44622437 182.12025452 122.10622437 182.12025452 122.78622437 182.12025452 C123.11622437 180.47025452 123.44622437 178.82025452 123.78622437 177.12025452 C124.44622437 177.12025452 125.10622437 177.12025452 125.78622437 177.12025452 C127.04287414 174.2142519 127.78622437 172.32420867 127.78622437 169.12025452 C128.77622437 168.79025452 129.76622437 168.46025452 130.78622437 168.12025452 C130.78622437 167.13025452 130.78622437 166.14025452 130.78622437 165.12025452 C131.44622437 165.12025452 132.10622437 165.12025452 132.78622437 165.12025452 C133.11622437 163.14025452 133.44622437 161.16025452 133.78622437 159.12025452 C134.44622437 159.12025452 135.10622437 159.12025452 135.78622437 159.12025452 C136.11622437 157.14025452 136.44622437 155.16025452 136.78622437 153.12025452 C137.44622437 153.12025452 138.10622437 153.12025452 138.78622437 153.12025452 C138.78622437 152.13025452 138.78622437 151.14025452 138.78622437 150.12025452 C138.12622437 150.12025452 137.46622437 150.12025452 136.78622437 150.12025452 C136.45622437 150.78025452 136.12622437 151.44025452 135.78622437 152.12025452 C133.93856812 152.75306702 133.93856812 152.75306702 131.72372437 153.24525452 C130.9902478 153.41283264 130.25677124 153.58041077 129.50106812 153.75306702 C128.93516968 153.87423889 128.36927124 153.99541077 127.78622437 154.12025452 C127.78622437 154.78025452 127.78622437 155.44025452 127.78622437 156.12025452 C125.47622437 156.12025452 123.16622437 156.12025452 120.78622437 156.12025452 C120.78622437 155.46025452 120.78622437 154.80025452 120.78622437 154.12025452 C118.1388352 152.65962601 116.89174102 152.12025452 113.78622437 152.12025452 C113.78622437 151.46025452 113.78622437 150.80025452 113.78622437 150.12025452 C112.45289103 148.45358785 112.45289103 148.45358785 110.78622437 147.12025452 C110.12622437 147.12025452 109.46622437 147.12025452 108.78622437 147.12025452 C108.45622437 145.80025452 108.12622437 144.48025452 107.78622437 143.12025452 C107.12622437 143.12025452 106.46622437 143.12025452 105.78622437 143.12025452 C105.12622437 141.14025452 104.46622437 139.16025452 103.78622437 137.12025452 C103.12622437 137.12025452 102.46622437 137.12025452 101.78622437 137.12025452 C101.66247437 136.31587952 101.53872437 135.51150452 101.41122437 134.68275452 C101.20497437 133.83712952 100.99872437 132.99150452 100.78622437 132.12025452 C100.12622437 131.79025452 99.46622437 131.46025452 98.78622437 131.12025452 C98.45622437 130.13025452 98.12622437 129.14025452 97.78622437 128.12025452 C97.12622437 128.12025452 96.46622437 128.12025452 95.78622437 128.12025452 C95.45622437 126.80025452 95.12622437 125.48025452 94.78622437 124.12025452 C94.12622437 124.12025452 93.46622437 124.12025452 92.78622437 124.12025452 C92.78622437 123.13025452 92.78622437 122.14025452 92.78622437 121.12025452 C91.79622437 121.12025452 90.80622437 121.12025452 89.78622437 121.12025452 C89.45622437 123.76025452 89.12622437 126.40025452 88.78622437 129.12025452 C88.12622437 129.12025452 87.46622437 129.12025452 86.78622437 129.12025452 C86.45622437 130.77025452 86.12622437 132.42025452 85.78622437 134.12025452 C82.81622437 134.12025452 79.84622437 134.12025452 76.78622437 134.12025452 C76.45622437 133.13025452 76.12622437 132.14025452 75.78622437 131.12025452 C74.79622437 131.12025452 73.80622437 131.12025452 72.78622437 131.12025452 C72.78622437 130.46025452 72.78622437 129.80025452 72.78622437 129.12025452 C69.97112443 126.84290442 69.97112443 126.84290442 66.78622437 127.12025452 C66.78622437 126.46025452 66.78622437 125.80025452 66.78622437 125.12025452 C62.82622437 125.12025452 58.86622437 125.12025452 54.78622437 125.12025452 C54.78622437 125.78025452 54.78622437 126.44025452 54.78622437 127.12025452 C52.80622437 127.45025452 50.82622437 127.78025452 48.78622437 128.12025452 C48.29122437 129.60525452 48.29122437 129.60525452 47.78622437 131.12025452 C46.13622437 131.45025452 44.48622437 131.78025452 42.78622437 132.12025452 C42.78622437 132.78025452 42.78622437 133.44025452 42.78622437 134.12025452 C40.47622437 134.12025452 38.16622437 134.12025452 35.78622437 134.12025452 C35.45622437 133.13025452 35.12622437 132.14025452 34.78622437 131.12025452 C34.12622437 131.12025452 33.46622437 131.12025452 32.78622437 131.12025452 C32.29122437 126.66525452 32.29122437 126.66525452 31.78622437 122.12025452 C30.30122437 121.62525452 30.30122437 121.62525452 28.78622437 121.12025452 C27.79622437 121.61525452 27.79622437 121.61525452 26.78622437 122.12025452 C26.13067317 124.64758687 26.13067317 124.64758687 25.78622437 127.12025452 C25.12622437 127.12025452 24.46622437 127.12025452 23.78622437 127.12025452 C23.45622437 128.77025452 23.12622437 130.42025452 22.78622437 132.12025452 C22.12622437 132.12025452 21.46622437 132.12025452 20.78622437 132.12025452 C18.45783086 133.88983358 17.8333363 134.93608968 17.09872437 137.80775452 C16.99559937 138.57087952 16.89247437 139.33400452 16.78622437 140.12025452 C16.12622437 140.12025452 15.46622437 140.12025452 14.78622437 140.12025452 C14.51809937 141.08962952 14.24997437 142.05900452 13.97372437 143.05775452 C13.58184937 144.06837952 13.18997437 145.07900452 12.78622437 146.12025452 C11.79622437 146.45025452 10.80622437 146.78025452 9.78622437 147.12025452 C9.78622437 147.78025452 9.78622437 148.44025452 9.78622437 149.12025452 C8.79622437 149.45025452 7.80622437 149.78025452 6.78622437 150.12025452 C6.78622437 150.78025452 6.78622437 151.44025452 6.78622437 152.12025452 C3.81622437 153.11025452 3.81622437 153.11025452 0.78622437 154.12025452 C0.78622437 154.78025452 0.78622437 155.44025452 0.78622437 156.12025452 C-2.18377563 156.12025452 -5.15377563 156.12025452 -8.21377563 156.12025452 C-8.21377563 155.46025452 -8.21377563 154.80025452 -8.21377563 154.12025452 C-11.18377563 153.46025452 -14.15377563 152.80025452 -17.21377563 152.12025452 C-17.21377563 150.47025452 -17.21377563 148.82025452 -17.21377563 147.12025452 C-16.55377563 146.79025452 -15.89377563 146.46025452 -15.21377563 146.12025452 C-14.748545 144.2249211 -14.748545 144.2249211 -14.58877563 142.05775452 C-14.46502563 140.75837952 -14.34127563 139.45900452 -14.21377563 138.12025452 C-13.55377563 138.12025452 -12.89377563 138.12025452 -12.21377563 138.12025452 C-12.21377563 137.13025452 -12.21377563 136.14025452 -12.21377563 135.12025452 C-13.20377563 135.12025452 -14.19377563 135.12025452 -15.21377563 135.12025452 C-15.21377563 135.78025452 -15.21377563 136.44025452 -15.21377563 137.12025452 C-17.85377563 137.45025452 -20.49377563 137.78025452 -23.21377563 138.12025452 C-23.21377563 134.82025452 -23.21377563 131.52025452 -23.21377563 128.12025452 C-22.55377563 128.12025452 -21.89377563 128.12025452 -21.21377563 128.12025452 C-20.88377563 125.81025452 -20.55377563 123.50025452 -20.21377563 121.12025452 C-19.55377563 121.12025452 -18.89377563 121.12025452 -18.21377563 121.12025452 C-17.88377563 119.14025452 -17.55377563 117.16025452 -17.21377563 115.12025452 C-16.55377563 115.12025452 -15.89377563 115.12025452 -15.21377563 115.12025452 C-13.84738222 113.48058242 -12.51883374 111.80915324 -11.21377563 110.12025452 C-10.10002563 109.03744202 -10.10002563 109.03744202 -8.96377563 107.93275452 C-6.98224413 106.30036329 -6.98224413 106.30036329 -7.21377563 104.12025452 C-6.22377563 104.12025452 -5.23377563 104.12025452 -4.21377563 104.12025452 C-4.21377563 103.46025452 -4.21377563 102.80025452 -4.21377563 102.12025452 C-9.40586967 101.90833231 -13.34051463 102.52898562 -18.21377563 104.12025452 C-18.21377563 104.78025452 -18.21377563 105.44025452 -18.21377563 106.12025452 C-19.20377563 106.12025452 -20.19377563 106.12025452 -21.21377563 106.12025452 C-20.88377563 104.14025452 -20.55377563 102.16025452 -20.21377563 100.12025452 C-19.55377563 100.12025452 -18.89377563 100.12025452 -18.21377563 100.12025452 C-17.88377563 98.14025452 -17.55377563 96.16025452 -17.21377563 94.12025452 C-15.72877563 93.62525452 -15.72877563 93.62525452 -14.21377563 93.12025452 C-14.21377563 92.46025452 -14.21377563 91.80025452 -14.21377563 91.12025452 C-12.72877563 90.62525452 -12.72877563 90.62525452 -11.21377563 90.12025452 C-11.21377563 89.46025452 -11.21377563 88.80025452 -11.21377563 88.12025452 C-9.72877563 87.62525452 -9.72877563 87.62525452 -8.21377563 87.12025452 C-7.55377563 86.29525452 -6.89377563 85.47025452 -6.21377563 84.62025452 C-4.21377563 82.12025452 -4.21377563 82.12025452 -1.21377563 81.12025452 C-1.21377563 80.46025452 -1.21377563 79.80025452 -1.21377563 79.12025452 C1.75622437 78.13025452 1.75622437 78.13025452 4.78622437 77.12025452 C4.78622437 76.46025452 4.78622437 75.80025452 4.78622437 75.12025452 C5.44622437 75.12025452 6.10622437 75.12025452 6.78622437 75.12025452 C6.78622437 74.13025452 6.78622437 73.14025452 6.78622437 72.12025452 C6.12622437 72.12025452 5.46622437 72.12025452 4.78622437 72.12025452 C4.29122437 70.14025452 4.29122437 70.14025452 3.78622437 68.12025452 C3.12622437 68.12025452 2.46622437 68.12025452 1.78622437 68.12025452 C1.29122437 65.15025452 1.29122437 65.15025452 0.78622437 62.12025452 C0.12622437 62.12025452 -0.53377563 62.12025452 -1.21377563 62.12025452 C-1.21377563 60.47025452 -1.21377563 58.82025452 -1.21377563 57.12025452 C0.43622437 57.12025452 2.08622437 57.12025452 3.78622437 57.12025452 C3.78622437 57.78025452 3.78622437 58.44025452 3.78622437 59.12025452 C7.41622437 59.45025452 11.04622437 59.78025452 14.78622437 60.12025452 C14.78622437 60.78025452 14.78622437 61.44025452 14.78622437 62.12025452 C18.41622437 62.12025452 22.04622437 62.12025452 25.78622437 62.12025452 C25.78622437 63.44025452 25.78622437 64.76025452 25.78622437 66.12025452 C25.12622437 66.12025452 24.46622437 66.12025452 23.78622437 66.12025452 C23.45622437 68.10025452 23.12622437 70.08025452 22.78622437 72.12025452 C24.76622437 72.12025452 26.74622437 72.12025452 28.78622437 72.12025452 C28.78622437 72.78025452 28.78622437 73.44025452 28.78622437 74.12025452 C31.09622437 74.45025452 33.40622437 74.78025452 35.78622437 75.12025452 C35.78622437 75.78025452 35.78622437 76.44025452 35.78622437 77.12025452 C39.44927671 77.86951522 42.20977588 78.35825591 45.78622437 77.12025452 C45.78622437 76.46025452 45.78622437 75.80025452 45.78622437 75.12025452 C48.42622437 75.12025452 51.06622437 75.12025452 53.78622437 75.12025452 C53.78622437 76.11025452 53.78622437 77.10025452 53.78622437 78.12025452 C52.79622437 78.12025452 51.80622437 78.12025452 50.78622437 78.12025452 C50.78622437 79.11025452 50.78622437 80.10025452 50.78622437 81.12025452 C50.12622437 81.12025452 49.46622437 81.12025452 48.78622437 81.12025452 C48.78622437 82.44025452 48.78622437 83.76025452 48.78622437 85.12025452 C49.44622437 85.12025452 50.10622437 85.12025452 50.78622437 85.12025452 C50.78622437 87.10025452 50.78622437 89.08025452 50.78622437 91.12025452 C49.98184937 90.95525452 49.17747437 90.79025452 48.34872437 90.62025452 C44.12735085 90.02778104 40.03957892 90.03518743 35.78622437 90.12025452 C35.78622437 89.46025452 35.78622437 88.80025452 35.78622437 88.12025452 C33.47622437 87.79025452 31.16622437 87.46025452 28.78622437 87.12025452 C29.11622437 85.47025452 29.44622437 83.82025452 29.78622437 82.12025452 C28.30122437 81.62525452 28.30122437 81.62525452 26.78622437 81.12025452 C26.45622437 80.13025452 26.12622437 79.14025452 25.78622437 78.12025452 C24.13622437 77.79025452 22.48622437 77.46025452 20.78622437 77.12025452 C20.29122437 79.10025452 20.29122437 79.10025452 19.78622437 81.12025452 C19.12622437 81.12025452 18.46622437 81.12025452 17.78622437 81.12025452 C17.45622437 83.10025452 17.12622437 85.08025452 16.78622437 87.12025452 C19.75622437 87.61525452 19.75622437 87.61525452 22.78622437 88.12025452 C22.78622437 88.78025452 22.78622437 89.44025452 22.78622437 90.12025452 C23.77622437 90.45025452 24.76622437 90.78025452 25.78622437 91.12025452 C27.14450407 92.76665416 28.47876687 94.43321259 29.78622437 96.12025452 C30.44622437 96.45025452 31.10622437 96.78025452 31.78622437 97.12025452 C32.11622437 98.11025452 32.44622437 99.10025452 32.78622437 100.12025452 C33.44622437 100.12025452 34.10622437 100.12025452 34.78622437 100.12025452 C34.98281244 101.53568866 35.16809982 102.95269483 35.34872437 104.37025452 C35.50534546 105.55361389 35.50534546 105.55361389 35.66513062 106.76087952 C35.78649786 109.12558325 35.48255693 110.87135822 34.78622437 113.12025452 C34.12622437 113.12025452 33.46622437 113.12025452 32.78622437 113.12025452 C31.98669299 116.40721685 31.68963501 117.83048644 32.78622437 121.12025452 C33.44622437 121.12025452 34.10622437 121.12025452 34.78622437 121.12025452 C35.11622437 123.10025452 35.44622437 125.08025452 35.78622437 127.12025452 C38.78622437 128.45358785 38.78622437 128.45358785 41.78622437 127.12025452 C41.78622437 126.46025452 41.78622437 125.80025452 41.78622437 125.12025452 C43.76622437 124.79025452 45.74622437 124.46025452 47.78622437 124.12025452 C47.78622437 123.46025452 47.78622437 122.80025452 47.78622437 122.12025452 C49.76622437 121.79025452 51.74622437 121.46025452 53.78622437 121.12025452 C53.78622437 120.46025452 53.78622437 119.80025452 53.78622437 119.12025452 C55.10622437 119.12025452 56.42622437 119.12025452 57.78622437 119.12025452 C57.52047897 115.22265533 57.22315665 113.5571868 54.41122437 110.74525452 C51.87563717 108.85707721 51.87563717 108.85707721 48.78622437 109.12025452 C48.78622437 108.46025452 48.78622437 107.80025452 48.78622437 107.12025452 C46.47622437 107.12025452 44.16622437 107.12025452 41.78622437 107.12025452 C42.11622437 104.81025452 42.44622437 102.50025452 42.78622437 100.12025452 C43.44622437 100.12025452 44.10622437 100.12025452 44.78622437 100.12025452 C44.78622437 98.80025452 44.78622437 97.48025452 44.78622437 96.12025452 C46.27122437 96.61525452 46.27122437 96.61525452 47.78622437 97.12025452 C47.78622437 97.78025452 47.78622437 98.44025452 47.78622437 99.12025452 C49.10622437 99.12025452 50.42622437 99.12025452 51.78622437 99.12025452 C51.78622437 98.46025452 51.78622437 97.80025452 51.78622437 97.12025452 C57.72622437 97.12025452 63.66622437 97.12025452 69.78622437 97.12025452 C69.78622437 97.78025452 69.78622437 98.44025452 69.78622437 99.12025452 C70.77622437 99.12025452 71.76622437 99.12025452 72.78622437 99.12025452 C72.78622437 98.13025452 72.78622437 97.14025452 72.78622437 96.12025452 C73.77622437 96.12025452 74.76622437 96.12025452 75.78622437 96.12025452 C76.28122437 99.58525452 76.28122437 99.58525452 76.78622437 103.12025452 C77.44622437 103.12025452 78.10622437 103.12025452 78.78622437 103.12025452 C78.78622437 104.44025452 78.78622437 105.76025452 78.78622437 107.12025452 C76.80622437 107.12025452 74.82622437 107.12025452 72.78622437 107.12025452 C72.78622437 107.78025452 72.78622437 108.44025452 72.78622437 109.12025452 C72.04372437 109.18212952 71.30122437 109.24400452 70.53622437 109.30775452 C66.95494676 110.36585926 65.93764565 112.15277688 63.78622437 115.12025452 C62.79622437 115.61525452 62.79622437 115.61525452 61.78622437 116.12025452 C61.78622437 117.11025452 61.78622437 118.10025452 61.78622437 119.12025452 C63.76622437 119.12025452 65.74622437 119.12025452 67.78622437 119.12025452 C67.78622437 119.78025452 67.78622437 120.44025452 67.78622437 121.12025452 C69.43622437 121.45025452 71.08622437 121.78025452 72.78622437 122.12025452 C72.78622437 122.78025452 72.78622437 123.44025452 72.78622437 124.12025452 C74.76622437 124.45025452 76.74622437 124.78025452 78.78622437 125.12025452 C78.78622437 125.78025452 78.78622437 126.44025452 78.78622437 127.12025452 C80.43622437 127.45025452 82.08622437 127.78025452 83.78622437 128.12025452 C83.78622437 127.13025452 83.78622437 126.14025452 83.78622437 125.12025452 C84.44622437 125.12025452 85.10622437 125.12025452 85.78622437 125.12025452 C86.28122437 123.63525452 86.28122437 123.63525452 86.78622437 122.12025452 C87.44622437 121.79025452 88.10622437 121.46025452 88.78622437 121.12025452 C89.73689735 117.83611147 89.88724634 116.42332044 88.78622437 113.12025452 C87.41107895 111.41148991 87.41107895 111.41148991 85.78622437 110.12025452 C85.12622437 110.12025452 84.46622437 110.12025452 83.78622437 110.12025452 C83.78622437 107.81025452 83.78622437 105.50025452 83.78622437 103.12025452 C84.44622437 103.12025452 85.10622437 103.12025452 85.78622437 103.12025452 C86.28122437 101.63525452 86.28122437 101.63525452 86.78622437 100.12025452 C87.30184937 99.62525452 87.81747437 99.13025452 88.34872437 98.62025452 C90.13217705 97.10552646 90.13217705 97.10552646 89.78622437 94.12025452 C90.59059937 93.99650452 91.39497437 93.87275452 92.22372437 93.74525452 C93.06934937 93.53900452 93.91497437 93.33275452 94.78622437 93.12025452 C95.11622437 92.46025452 95.44622437 91.80025452 95.78622437 91.12025452 C96.77622437 90.79025452 97.76622437 90.46025452 98.78622437 90.12025452 C98.78622437 89.46025452 98.78622437 88.80025452 98.78622437 88.12025452 C101.26122437 87.62525452 101.26122437 87.62525452 103.78622437 87.12025452 C103.78622437 86.13025452 103.78622437 85.14025452 103.78622437 84.12025452 C103.12622437 84.12025452 102.46622437 84.12025452 101.78622437 84.12025452 C101.45622437 81.81025452 101.12622437 79.50025452 100.78622437 77.12025452 C98.31122437 77.61525452 98.31122437 77.61525452 95.78622437 78.12025452 C95.45622437 79.11025452 95.12622437 80.10025452 94.78622437 81.12025452 C93.79622437 81.45025452 92.80622437 81.78025452 91.78622437 82.12025452 C91.78622437 83.77025452 91.78622437 85.42025452 91.78622437 87.12025452 C88.81622437 87.61525452 88.81622437 87.61525452 85.78622437 88.12025452 C85.78622437 88.78025452 85.78622437 89.44025452 85.78622437 90.12025452 C85.12235718 90.10865295 84.45848999 90.09705139 83.77450562 90.08509827 C77.22315649 90.00132043 77.22315649 90.00132043 70.78622437 91.12025452 C70.78622437 88.81025452 70.78622437 86.50025452 70.78622437 84.12025452 C71.44622437 84.12025452 72.10622437 84.12025452 72.78622437 84.12025452 C72.78622437 83.13025452 72.78622437 82.14025452 72.78622437 81.12025452 C72.12622437 81.12025452 71.46622437 81.12025452 70.78622437 81.12025452 C70.45622437 80.13025452 70.12622437 79.14025452 69.78622437 78.12025452 C68.79622437 77.13025452 67.80622437 76.14025452 66.78622437 75.12025452 C69.75622437 75.12025452 72.72622437 75.12025452 75.78622437 75.12025452 C75.78622437 75.78025452 75.78622437 76.44025452 75.78622437 77.12025452 C78.42622437 77.12025452 81.06622437 77.12025452 83.78622437 77.12025452 C83.78622437 76.46025452 83.78622437 75.80025452 83.78622437 75.12025452 C86.42622437 74.79025452 89.06622437 74.46025452 91.78622437 74.12025452 C91.78622437 73.46025452 91.78622437 72.80025452 91.78622437 72.12025452 C93.76622437 72.12025452 95.74622437 72.12025452 97.78622437 72.12025452 C97.78622437 70.80025452 97.78622437 69.48025452 97.78622437 68.12025452 C97.12622437 68.12025452 96.46622437 68.12025452 95.78622437 68.12025452 C95.45622437 66.14025452 95.12622437 64.16025452 94.78622437 62.12025452 C98.08622437 62.12025452 101.38622437 62.12025452 104.78622437 62.12025452 C104.78622437 61.46025452 104.78622437 60.80025452 104.78622437 60.12025452 C109.07622437 59.79025452 113.36622437 59.46025452 117.78622437 59.12025452 C117.78622437 58.46025452 117.78622437 57.80025452 117.78622437 57.12025452 C119.43622437 57.12025452 121.08622437 57.12025452 122.78622437 57.12025452 C122.78622437 57.78025452 122.78622437 58.44025452 122.78622437 59.12025452 C122.12622437 59.12025452 121.46622437 59.12025452 120.78622437 59.12025452 C120.45622437 61.10025452 120.12622437 63.08025452 119.78622437 65.12025452 C119.12622437 65.12025452 118.46622437 65.12025452 117.78622437 65.12025452 C117.45622437 67.10025452 117.12622437 69.08025452 116.78622437 71.12025452 C115.79622437 71.45025452 114.80622437 71.78025452 113.78622437 72.12025452 C113.78622437 73.11025452 113.78622437 74.10025452 113.78622437 75.12025452 C114.77622437 75.12025452 115.76622437 75.12025452 116.78622437 75.12025452 C117.11622437 76.11025452 117.44622437 77.10025452 117.78622437 78.12025452 C119.43622437 78.45025452 121.08622437 78.78025452 122.78622437 79.12025452 C123.11622437 80.11025452 123.44622437 81.10025452 123.78622437 82.12025452 C124.44622437 82.12025452 125.10622437 82.12025452 125.78622437 82.12025452 C125.78622437 82.78025452 125.78622437 83.44025452 125.78622437 84.12025452 C126.42559937 84.22337952 127.06497437 84.32650452 127.72372437 84.43275452 C128.40434937 84.65962952 129.08497437 84.88650452 129.78622437 85.12025452 C130.11622437 86.11025452 130.44622437 87.10025452 130.78622437 88.12025452 C131.44622437 88.12025452 132.10622437 88.12025452 132.78622437 88.12025452 C132.90997437 88.92462952 133.03372437 89.72900452 133.16122437 90.55775452 C133.36747437 91.40337952 133.57372437 92.24900452 133.78622437 93.12025452 C134.44622437 93.45025452 135.10622437 93.78025452 135.78622437 94.12025452 C136.11622437 95.11025452 136.44622437 96.10025452 136.78622437 97.12025452 C137.44622437 97.12025452 138.10622437 97.12025452 138.78622437 97.12025452 C139.11622437 99.10025452 139.44622437 101.08025452 139.78622437 103.12025452 C140.44622437 103.12025452 141.10622437 103.12025452 141.78622437 103.12025452 C141.78622437 104.11025452 141.78622437 105.10025452 141.78622437 106.12025452 C140.79622437 106.12025452 139.80622437 106.12025452 138.78622437 106.12025452 C138.78622437 105.46025452 138.78622437 104.80025452 138.78622437 104.12025452 C133.21189923 102.45773649 129.47947387 101.93416087 123.78622437 103.12025452 C124.77622437 103.45025452 125.76622437 103.78025452 126.78622437 104.12025452 C127.11622437 105.11025452 127.44622437 106.10025452 127.78622437 107.12025452 C128.44622437 107.12025452 129.10622437 107.12025452 129.78622437 107.12025452 C130.11622437 108.11025452 130.44622437 109.10025452 130.78622437 110.12025452 C131.44622437 110.12025452 132.10622437 110.12025452 132.78622437 110.12025452 C133.11622437 111.11025452 133.44622437 112.10025452 133.78622437 113.12025452 C134.44622437 113.12025452 135.10622437 113.12025452 135.78622437 113.12025452 C135.90997437 113.92462952 136.03372437 114.72900452 136.16122437 115.55775452 C136.36747437 116.40337952 136.57372437 117.24900452 136.78622437 118.12025452 C137.44622437 118.45025452 138.10622437 118.78025452 138.78622437 119.12025452 C139.11622437 120.11025452 139.44622437 121.10025452 139.78622437 122.12025452 C140.44622437 122.12025452 141.10622437 122.12025452 141.78622437 122.12025452 C142.11622437 125.42025452 142.44622437 128.72025452 142.78622437 132.12025452 C143.44622437 132.12025452 144.10622437 132.12025452 144.78622437 132.12025452 C145.11622437 133.11025452 145.44622437 134.10025452 145.78622437 135.12025452 C145.78622437 133.80025452 145.78622437 132.48025452 145.78622437 131.12025452 C146.44622437 131.12025452 147.10622437 131.12025452 147.78622437 131.12025452 C148.1249495 129.70486735 148.4569706 128.28787489 148.78622437 126.87025452 C148.97184937 126.08134827 149.15747437 125.29244202 149.34872437 124.47962952 C149.90777265 121.8646945 149.90777265 121.8646945 149.78622437 118.12025452 C150.44622437 118.12025452 151.10622437 118.12025452 151.78622437 118.12025452 C152.73883924 113.35718014 152.86955794 108.95360172 152.78622437 104.12025452 C153.44622437 104.12025452 154.10622437 104.12025452 154.78622437 104.12025452 C155.88851132 99.71110669 155.86276972 95.6364305 155.78622437 91.12025452 C156.44622437 91.12025452 157.10622437 91.12025452 157.78622437 91.12025452 C158.65241846 81.82844303 158.91245229 72.63654176 158.84872437 63.30775452 C158.84195679 61.39252991 158.84195679 61.39252991 158.83505249 59.43861389 C158.82341889 56.33244241 158.80707512 53.22637544 158.78622437 50.12025452 C155.81622437 49.79025452 152.84622437 49.46025452 149.78622437 49.12025452 C149.78622437 48.46025452 149.78622437 47.80025452 149.78622437 47.12025452 C148.13622437 46.79025452 146.48622437 46.46025452 144.78622437 46.12025452 C144.78622437 45.46025452 144.78622437 44.80025452 144.78622437 44.12025452 C143.13622437 43.79025452 141.48622437 43.46025452 139.78622437 43.12025452 C139.45622437 42.13025452 139.12622437 41.14025452 138.78622437 40.12025452 C138.12622437 40.12025452 137.46622437 40.12025452 136.78622437 40.12025452 C136.78622437 39.46025452 136.78622437 38.80025452 136.78622437 38.12025452 C135.79622437 37.79025452 134.80622437 37.46025452 133.78622437 37.12025452 C132.41548651 35.48421256 131.08567181 33.81347391 129.78622437 32.12025452 C127.76581688 29.84834036 127.76581688 29.84834036 125.78622437 28.12025452 C125.12622437 28.12025452 124.46622437 28.12025452 123.78622437 28.12025452 C123.45622437 26.80025452 123.12622437 25.48025452 122.78622437 24.12025452 C122.12622437 24.12025452 121.46622437 24.12025452 120.78622437 24.12025452 C120.45622437 22.47025452 120.12622437 20.82025452 119.78622437 19.12025452 C119.12622437 19.12025452 118.46622437 19.12025452 117.78622437 19.12025452 C117.45622437 16.81025452 117.12622437 14.50025452 116.78622437 12.12025452 C102.08739945 12.09691495 87.38857698 12.07927013 72.68973732 12.06844234 C65.86512254 12.06328164 59.04051926 12.05624322 52.21591187 12.04481506 C45.63479004 12.03379987 39.05367706 12.02797675 32.47254562 12.02537727 C29.95663642 12.02352381 27.4407279 12.01990471 24.92482376 12.01452446 C21.41197523 12.00730829 17.89917672 12.00626382 14.38632202 12.00672913 C12.81215767 12.00133621 12.81215767 12.00133621 11.20619202 11.99583435 C10.25264328 11.99720901 9.29909454 11.99858368 8.31665039 12 C7.48519312 11.99907821 6.65373585 11.99815641 5.7970829 11.99720669 C3.71456393 11.99285584 3.71456393 11.99285584 1.78622437 13.12025452 Z M132.78622437 135.12025452 C133.11622437 137.10025452 133.44622437 139.08025452 133.78622437 141.12025452 C134.44622437 141.12025452 135.10622437 141.12025452 135.78622437 141.12025452 C136.11622437 143.10025452 136.44622437 145.08025452 136.78622437 147.12025452 C137.44622437 147.12025452 138.10622437 147.12025452 138.78622437 147.12025452 C139.11622437 148.11025452 139.44622437 149.10025452 139.78622437 150.12025452 C139.78622437 148.80025452 139.78622437 147.48025452 139.78622437 146.12025452 C140.44622437 146.12025452 141.10622437 146.12025452 141.78622437 146.12025452 C142.11622437 144.14025452 142.44622437 142.16025452 142.78622437 140.12025452 C143.44622437 140.12025452 144.10622437 140.12025452 144.78622437 140.12025452 C144.78622437 139.46025452 144.78622437 138.80025452 144.78622437 138.12025452 C142.14622437 137.79025452 139.50622437 137.46025452 136.78622437 137.12025452 C136.78622437 136.46025452 136.78622437 135.80025452 136.78622437 135.12025452 C135.46622437 135.12025452 134.14622437 135.12025452 132.78622437 135.12025452 Z " fill="#FFFFFF" transform="translate(68.21377563476563,-0.1202545166015625)"/>
<path d="M0 0 C1.32 0.33 2.64 0.66 4 1 C4 1.66 4 2.32 4 3 C4.99 3.33 5.98 3.66 7 4 C7 5.65 7 7.3 7 9 C7.66 9 8.32 9 9 9 C9 9.99 9 10.98 9 12 C8.34 12 7.68 12 7 12 C6.67 14.97 6.34 17.94 6 21 C5.34 21 4.68 21 4 21 C3.67 23.64 3.34 26.28 3 29 C2.34 29 1.68 29 1 29 C1 36.26 1 43.52 1 51 C1.66 51 2.32 51 3 51 C3.495 54.96 3.495 54.96 4 59 C4.66 59 5.32 59 6 59 C6.495 62.465 6.495 62.465 7 66 C7.66 66 8.32 66 9 66 C11.28571429 74.42857143 11.28571429 74.42857143 11 79 C11.66 79 12.32 79 13 79 C13 83.62 13 88.24 13 93 C12.01 93 11.02 93 10 93 C8.63360658 91.3603279 7.3050581 89.68889872 6 88 C5.175 87.34 4.35 86.68 3.5 86 C0.87822591 83.90258073 -0.92713465 81.62562945 -3 79 C-4.485 78.01 -4.485 78.01 -6 77 C-6 76.34 -6 75.68 -6 75 C-7.485 74.505 -7.485 74.505 -9 74 C-9 73.34 -9 72.68 -9 72 C-9.66 72 -10.32 72 -11 72 C-11.268125 71.030625 -11.53625 70.06125 -11.8125 69.0625 C-12.204375 68.051875 -12.59625 67.04125 -13 66 C-14.485 65.505 -14.485 65.505 -16 65 C-16 64.01 -16 63.02 -16 62 C-16.66 62 -17.32 62 -18 62 C-20.3283935 60.23042094 -20.95288806 59.18416484 -21.6875 56.3125 C-21.8421875 55.1678125 -21.8421875 55.1678125 -22 54 C-22.66 54 -23.32 54 -24 54 C-24.33 52.35 -24.66 50.7 -25 49 C-25.66 49 -26.32 49 -27 49 C-27.33 47.02 -27.66 45.04 -28 43 C-28.66 43 -29.32 43 -30 43 C-30 41.02 -30 39.04 -30 37 C-29.01 37 -28.02 37 -27 37 C-27 36.34 -27 35.68 -27 35 C-24.525 34.505 -24.525 34.505 -22 34 C-21.67 33.01 -21.34 32.02 -21 31 C-20.34 31 -19.68 31 -19 31 C-18.67 30.01 -18.34 29.02 -18 28 C-17.34 28 -16.68 28 -16 28 C-15.67 26.68 -15.34 25.36 -15 24 C-14.34 24 -13.68 24 -13 24 C-12.34 22.02 -11.68 20.04 -11 18 C-10.34 18 -9.68 18 -9 18 C-8.87625 17.195625 -8.7525 16.39125 -8.625 15.5625 C-8.315625 14.2940625 -8.315625 14.2940625 -8 13 C-7.34 12.67 -6.68 12.34 -6 12 C-5.67 11.01 -5.34 10.02 -5 9 C-4.34 9 -3.68 9 -3 9 C-2.67 7.02 -2.34 5.04 -2 3 C-1.34 3 -0.68 3 0 3 C0 2.01 0 1.02 0 0 Z " fill="#FFFFFF" transform="translate(94,128)"/>
<path d="M0 0 C0.33 0.99 0.66 1.98 1 3 C1.66 3.33 2.32 3.66 3 4 C3.625 7.0625 3.625 7.0625 4 10 C4.66 10 5.32 10 6 10 C6.33 11.65 6.66 13.3 7 15 C7.66 15 8.32 15 9 15 C10.4606285 17.64738916 11 18.89448334 11 22 C11.66 22 12.32 22 13 22 C15.125 23.8125 15.125 23.8125 17 26 C17 26.99 17 27.98 17 29 C17.66 29 18.32 29 19 29 C20.625 30.375 20.625 30.375 22 32 C22 32.66 22 33.32 22 34 C22.928125 34.103125 23.85625 34.20625 24.8125 34.3125 C28.02464205 35.00531495 29.11930017 35.3879169 31 38 C31 38.66 31 39.32 31 40 C30.34 40 29.68 40 29 40 C28.67 41.98 28.34 43.96 28 46 C27.34 46 26.68 46 26 46 C25.67 47.65 25.34 49.3 25 51 C24.34 51 23.68 51 23 51 C22.67 52.98 22.34 54.96 22 57 C21.34 57 20.68 57 20 57 C19.67 57.99 19.34 58.98 19 60 C18.34 60 17.68 60 17 60 C16.87625 60.804375 16.7525 61.60875 16.625 62.4375 C16.315625 63.7059375 16.315625 63.7059375 16 65 C15.01 65.495 15.01 65.495 14 66 C13.67 66.99 13.34 67.98 13 69 C12.34 69 11.68 69 11 69 C10.690625 70.0828125 10.690625 70.0828125 10.375 71.1875 C8.52471012 74.97218384 6.39759562 76.52258653 3 79 C2.34 79 1.68 79 1 79 C0.67 79.99 0.34 80.98 0 82 C-0.66 82 -1.32 82 -2 82 C-2.33 82.99 -2.66 83.98 -3 85 C-3.66 85 -4.32 85 -5 85 C-5.33 85.99 -5.66 86.98 -6 88 C-6.66 88 -7.32 88 -8 88 C-8.33 88.99 -8.66 89.98 -9 91 C-9.66 91 -10.32 91 -11 91 C-11 91.66 -11 92.32 -11 93 C-11.66 93 -12.32 93 -13 93 C-13.26442904 85.40501039 -12.60881575 78.42640842 -11 71 C-10.34 71 -9.68 71 -9 71 C-8.67 68.36 -8.34 65.72 -8 63 C-7.34 63 -6.68 63 -6 63 C-5.505 60.03 -5.505 60.03 -5 57 C-4.34 57 -3.68 57 -3 57 C-2.67 53.7 -2.34 50.4 -2 47 C-1.34 47 -0.68 47 0 47 C0 42.71 0 38.42 0 34 C-0.66 34 -1.32 34 -2 34 C-2.33 30.04 -2.66 26.08 -3 22 C-3.66 22 -4.32 22 -5 22 C-5.33 20.02 -5.66 18.04 -6 16 C-6.66 16 -7.32 16 -8 16 C-8 12.7 -8 9.4 -8 6 C-7.34 6 -6.68 6 -6 6 C-5.814375 4.7934375 -5.814375 4.7934375 -5.625 3.5625 C-5.41875 2.716875 -5.2125 1.87125 -5 1 C-3 0 -3 0 0 0 Z " fill="#FFFFFF" transform="translate(163,128)"/>
<path d="M0 0 C0.33 0 0.66 0 1 0 C1 3.96 1 7.92 1 12 C1.66 12 2.32 12 3 12 C3.33 15.3 3.66 18.6 4 22 C4.66 22 5.32 22 6 22 C6.33 24.64 6.66 27.28 7 30 C7.66 30 8.32 30 9 30 C9 32.97 9 35.94 9 39 C8.34 39 7.68 39 7 39 C7.020625 40.093125 7.04125 41.18625 7.0625 42.3125 C7 46 7 46 6 49 C5.34 49 4.68 49 4 49 C3.87625 49.969375 3.7525 50.93875 3.625 51.9375 C3.41875 52.948125 3.2125 53.95875 3 55 C2.01 55.495 2.01 55.495 1 56 C0.5359375 57.175625 0.5359375 57.175625 0.0625 58.375 C-0.99023648 60.97587837 -1.822667 62.27627805 -4 64 C-4.66 64 -5.32 64 -6 64 C-6.33 65.98 -6.66 67.96 -7 70 C-7.66 70 -8.32 70 -9 70 C-9.33 71.65 -9.66 73.3 -10 75 C-10.66 75 -11.32 75 -12 75 C-12.33 80.94 -12.66 86.88 -13 93 C-13.99 93 -14.98 93 -16 93 C-16 92.01 -16 91.02 -16 90 C-16.99 89.67 -17.98 89.34 -19 89 C-19 87.35 -19 85.7 -19 84 C-19.66 84 -20.32 84 -21 84 C-21 58.92 -21 33.84 -21 8 C-20.01 8.33 -19.02 8.66 -18 9 C-18 9.99 -18 10.98 -18 12 C-17.34 12 -16.68 12 -16 12 C-15.67 12.66 -15.34 13.32 -15 14 C-13.35 14 -11.7 14 -10 14 C-9.67 11.36 -9.34 8.72 -9 6 C-8.34 6 -7.68 6 -7 6 C-7 5.01 -7 4.02 -7 3 C-3.535 2.505 -3.535 2.505 0 2 C0 1.34 0 0.68 0 0 Z " fill="#FFFFFF" transform="translate(151,135)"/>
<path d="M0 0 C0.99 0 1.98 0 3 0 C3 0.66 3 1.32 3 2 C3.969375 1.979375 4.93875 1.95875 5.9375 1.9375 C9 2 9 2 10 3 C10.14115161 5.67058851 10.04247107 8.32432238 10 11 C10.66 11 11.32 11 12 11 C12 12.32 12 13.64 12 15 C13.98 14.67 15.96 14.34 18 14 C18.33 13.01 18.66 12.02 19 11 C19.66 11 20.32 11 21 11 C21 10.34 21 9.68 21 9 C21.66 9 22.32 9 23 9 C23.04663086 17.64156581 23.08202374 26.28307779 23.10362434 34.92473888 C23.11399891 38.9387225 23.12804032 42.95261915 23.15087891 46.96655273 C23.17283575 50.85045014 23.184616 54.73426463 23.18975449 58.61821938 C23.19340974 60.089555 23.20054552 61.56088682 23.21146011 63.03218651 C23.2766349 72.19402514 22.70681083 80.97843247 21 90 C20.34 90 19.68 90 19 90 C18.67 91.65 18.34 93.3 18 95 C17.01 95 16.02 95 15 95 C15 90.05 15 85.1 15 80 C14.34 80 13.68 80 13 80 C12.67 77.03 12.34 74.06 12 71 C11.34 71 10.68 71 10 71 C9.67 70.01 9.34 69.02 9 68 C8.34 67.67 7.68 67.34 7 67 C6.375 64.4375 6.375 64.4375 6 62 C5.34 62 4.68 62 4 62 C3.505 60.515 3.505 60.515 3 59 C2.505 58.566875 2.01 58.13375 1.5 57.6875 C-0.60504861 55.31932032 -0.65720173 53.08518447 -1 50 C-1.66 50 -2.32 50 -3 50 C-3.33 48.02 -3.66 46.04 -4 44 C-4.66 44 -5.32 44 -6 44 C-6 38.72 -6 33.44 -6 28 C-5.34 28 -4.68 28 -4 28 C-3.67 24.7 -3.34 21.4 -3 18 C-2.34 18 -1.68 18 -1 18 C-0.505 9.09 -0.505 9.09 0 0 Z " fill="#FFFFFF" transform="translate(104,135)"/>
<path d="M0 0 C0 0.66 0 1.32 0 2 C3.3 2.33 6.6 2.66 10 3 C10 3.66 10 4.32 10 5 C12.64 5.33 15.28 5.66 18 6 C18 6.99 18 7.98 18 9 C17.34 9 16.68 9 16 9 C16 9.66 16 10.32 16 11 C13.69 11.33 11.38 11.66 9 12 C9 12.66 9 13.32 9 14 C7.68 14.33 6.36 14.66 5 15 C5 15.66 5 16.32 5 17 C3.3603279 18.36639342 1.68889872 19.6949419 0 21 C-0.721875 21.7425 -1.44375 22.485 -2.1875 23.25 C-4 25 -4 25 -6 25 C-6.495 27.475 -6.495 27.475 -7 30 C-7.66 30 -8.32 30 -9 30 C-9.33 31.98 -9.66 33.96 -10 36 C-10.66 36 -11.32 36 -12 36 C-12 36.99 -12 37.98 -12 39 C-12.99 39.33 -13.98 39.66 -15 40 C-15.495 40.99 -15.495 40.99 -16 42 C-16.66 42 -17.32 42 -18 42 C-18.66 40.35 -19.32 38.7 -20 37 C-20.66 37 -21.32 37 -22 37 C-22.33 35.02 -22.66 33.04 -23 31 C-23.99 30.67 -24.98 30.34 -26 30 C-26 29.01 -26 28.02 -26 27 C-26.66 27 -27.32 27 -28 27 C-30.125 25.125 -30.125 25.125 -32 23 C-32 22.34 -32 21.68 -32 21 C-32.99 20.67 -33.98 20.34 -35 20 C-35 19.34 -35 18.68 -35 18 C-35.99 17.67 -36.98 17.34 -38 17 C-38 16.34 -38 15.68 -38 15 C-39.32 14.67 -40.64 14.34 -42 14 C-42 13.34 -42 12.68 -42 12 C-44.97 11.505 -44.97 11.505 -48 11 C-48 10.34 -48 9.68 -48 9 C-48.99 9 -49.98 9 -51 9 C-51 8.01 -51 7.02 -51 6 C-46.545 5.505 -46.545 5.505 -42 5 C-42 4.34 -42 3.68 -42 3 C-38.7 2.67 -35.4 2.34 -32 2 C-32 1.34 -32 0.68 -32 0 C-21.2912949 -1.45202781 -10.71713007 -1.35476136 0 0 Z " fill="#FFFFFF" transform="translate(145,26)"/>
<path d="M0 0 C0.66 0 1.32 0 2 0 C2.33 0.66 2.66 1.32 3 2 C6.96 2 10.92 2 15 2 C15 1.34 15 0.68 15 0 C17.31 0 19.62 0 22 0 C22 0.66 22 1.32 22 2 C24.64 2.33 27.28 2.66 30 3 C30 3.66 30 4.32 30 5 C30.969375 5.12375 31.93875 5.2475 32.9375 5.375 C33.948125 5.58125 34.95875 5.7875 36 6 C36.495 6.99 36.495 6.99 37 8 C37.99 8.33 38.98 8.66 40 9 C41.35386936 10.65002828 42.68678142 12.3174387 44 14 C44.99 14.66 45.98 15.32 47 16 C47 16.66 47 17.32 47 18 C40.565 18.495 40.565 18.495 34 19 C34 19.66 34 20.32 34 21 C31.03 21.495 31.03 21.495 28 22 C28 22.66 28 23.32 28 24 C26.02 24 24.04 24 22 24 C22 23.34 22 22.68 22 22 C20.783125 22.020625 19.56625 22.04125 18.3125 22.0625 C15.08022678 22.06824116 12.15065259 21.78766315 9 21 C9 20.34 9 19.68 9 19 C8.071875 18.896875 7.14375 18.79375 6.1875 18.6875 C2.9322234 17.98538152 1.91626613 17.62225892 0 15 C-0.93742541 12.18772378 -1.13470844 10.41253156 -1.125 7.5 C-1.12757812 6.7265625 -1.13015625 5.953125 -1.1328125 5.15625 C-1 3 -1 3 0 0 Z " fill="#FFFFFF" transform="translate(67,35)"/>
<path d="M0 0 C2.31 0 4.62 0 7 0 C7 0.66 7 1.32 7 2 C11.95 2 16.9 2 22 2 C22 5.3 22 8.6 22 12 C21.34 12 20.68 12 20 12 C19.67 13.32 19.34 14.64 19 16 C18.34 16 17.68 16 17 16 C16.505 17.485 16.505 17.485 16 19 C15.01 19 14.02 19 13 19 C13 19.66 13 20.32 13 21 C6.565 21.495 6.565 21.495 0 22 C0 22.66 0 23.32 0 24 C-1.98 24 -3.96 24 -6 24 C-6 23.34 -6 22.68 -6 22 C-8.64 21.67 -11.28 21.34 -14 21 C-14 20.34 -14 19.68 -14 19 C-15.0725 19.020625 -16.145 19.04125 -17.25 19.0625 C-20.14790424 19.0142016 -22.28612141 18.86844115 -25 18 C-24.67 16.68 -24.34 15.36 -24 14 C-23.34 14 -22.68 14 -22 14 C-21.67 13.01 -21.34 12.02 -21 11 C-20.01 11 -19.02 11 -18 11 C-17.67 10.01 -17.34 9.02 -17 8 C-16.01 8 -15.02 8 -14 8 C-14 7.34 -14 6.68 -14 6 C-12.35 5.67 -10.7 5.34 -9 5 C-9 4.34 -9 3.68 -9 3 C-4.545 2.505 -4.545 2.505 0 2 C0 1.34 0 0.68 0 0 Z " fill="#FFFFFF" transform="translate(169,35)"/>
</svg>
