<?xml version="1.0" encoding="UTF-8"?>
<svg version="1.1" xmlns="http://www.w3.org/2000/svg" width="256" height="256">
<path d="M0 0 C19.39442158 20.28407395 26.93709468 44.77412596 26.5859375 72.484375 C25.82822134 97.25644203 14.15696991 119.82882027 -3.6875 136.75 C-25.03659329 155.96624137 -49.16340206 161.70344483 -77.390625 160.92919922 C-101.99887345 159.59163595 -122.21430772 145.81854746 -138.8125 128.5625 C-144.22230152 122.49027381 -147.98895657 115.9402332 -151.6875 108.75 C-152.41259766 107.39455078 -152.41259766 107.39455078 -153.15234375 106.01171875 C-163.00217749 86.28211256 -164.23616286 60.37063166 -157.94921875 39.3671875 C-155.93230107 33.58494052 -153.55765815 28.15754433 -150.6875 22.75 C-150.17445313 21.74453125 -149.66140625 20.7390625 -149.1328125 19.703125 C-144.73055733 11.57264416 -139.17007277 5.24158887 -132.6875 -1.25 C-131.89472656 -2.054375 -131.10195312 -2.85875 -130.28515625 -3.6875 C-92.97927539 -39.44155553 -35.84529841 -33.77730043 0 0 Z M-106.4375 -0.75 C-107.42234375 -0.6571875 -108.4071875 -0.564375 -109.421875 -0.46875 C-110.54335937 -0.36046875 -110.54335937 -0.36046875 -111.6875 -0.25 C-109.18803485 1.67989676 -106.69503888 3.39964178 -103.9375 4.9375 C-102.865 5.535625 -101.7925 6.13375 -100.6875 6.75 C-104.26468429 9.76479191 -108.18480906 11.47467353 -112.4375 13.3125 C-113.11554688 13.61607422 -113.79359375 13.91964844 -114.4921875 14.23242188 C-119.15663302 16.26757443 -123.72252402 17.63121057 -128.6875 18.75 C-128.6875 19.41 -128.6875 20.07 -128.6875 20.75 C-127.06657408 22.35059293 -127.06657408 22.35059293 -125 24 C-122.37763811 26.21146363 -120.08673314 28.34038337 -118 31.0625 C-115.62983815 33.81701242 -114.13324134 34.76550247 -110.6875 35.75 C-110.3575 33.11 -110.0275 30.47 -109.6875 27.75 C-108.4809375 27.2859375 -108.4809375 27.2859375 -107.25 26.8125 C-104.79669595 25.98664655 -104.79669595 25.98664655 -103.6875 24.75 C-101.4921875 24.33203125 -101.4921875 24.33203125 -98.6875 24.75 C-96.52856049 26.59421672 -94.70796009 28.35480396 -92.8125 30.4375 C-88.6987683 34.76921132 -84.75548809 38.52491667 -79.6875 41.75 C-79.955625 42.61625 -80.22375 43.4825 -80.5 44.375 C-80.70589588 48.08112587 -80.50903412 48.45984739 -78.25 51.125 C-76.9815625 52.424375 -76.9815625 52.424375 -75.6875 53.75 C-71.17439554 46.98034331 -69.86828548 36.80560945 -70.6875 28.75 C-72.77201446 19.59550734 -77.03672798 8.64264859 -84.69140625 2.86328125 C-91.77661279 -1.08835058 -98.50702366 -1.50528346 -106.4375 -0.75 Z M-51.94140625 4.98828125 C-54.84878688 7.92167871 -56.802835 11.09509608 -58.6875 14.75 C-59.0690625 15.43964844 -59.450625 16.12929687 -59.84375 16.83984375 C-66.10754857 29.21084593 -62.9809167 41.02864793 -59.6875 53.75 C-56.15459122 51.24446494 -56.15459122 51.24446494 -53.8125 47.75 C-53.67436672 45.53986755 -54.11202253 43.87483988 -54.6875 41.75 C-54.14222656 41.34910156 -53.59695312 40.94820312 -53.03515625 40.53515625 C-47.81225587 36.59789289 -43.30330062 32.43422291 -38.92578125 27.5703125 C-36.14175764 25.30616764 -34.24429433 24.92973163 -30.6875 24.75 C-27.375 26.25 -27.375 26.25 -24.6875 28.75 C-23.8125 32.5 -23.8125 32.5 -23.6875 35.75 C-18.83840102 33.65462292 -15.94853508 31.22784512 -12.5 27.25 C-7.0859375 21.0625 -7.0859375 21.0625 -4.6875 18.75 C-5.368125 18.62625 -6.04875 18.5025 -6.75 18.375 C-13.43620979 16.95240217 -19.29357146 14.73642502 -25.375 11.6875 C-26.08205078 11.33494141 -26.78910156 10.98238281 -27.51757812 10.61914062 C-32.5522896 8.02042079 -32.5522896 8.02042079 -33.6875 5.75 C-32.3571875 5.37875 -32.3571875 5.37875 -31 5 C-27.56865981 3.70515465 -25.47453122 2.08597847 -22.6875 -0.25 C-33.5345133 -1.50811753 -43.13337452 -2.33106906 -51.94140625 4.98828125 Z M-120.07421875 38.0625 C-120.50347656 38.619375 -120.93273437 39.17625 -121.375 39.75 C-122.138125 40.74 -122.90125 41.73 -123.6875 42.75 C-122.6975 44.235 -122.6975 44.235 -121.6875 45.75 C-121.69864424 47.73088893 -121.79098619 49.71200542 -121.9375 51.6875 C-122.10937362 56.69043987 -122.10937362 56.69043987 -119.0625 60.625 C-114.9199744 62.00584187 -113.66837804 61.34235121 -109.6875 59.75 C-104.34969215 59.05329817 -100.13409476 59.53331443 -95.6875 62.75 C-94.52123842 64.3456453 -93.4003079 65.97487153 -92.3125 67.625 C-89.14532627 72.37576059 -86.16319145 75.7972718 -80.6875 77.75 C-78.25231609 78.00756753 -76.01003635 78.01514216 -73.5703125 77.828125 C-71.6875 77.75 -71.6875 77.75 -69.6875 78.75 C-66.64576106 78.91670273 -66.64576106 78.91670273 -63.6875 78.75 C-63.3575 78.42 -63.0275 78.09 -62.6875 77.75 C-61.3528943 77.80958061 -60.01955417 77.89824586 -58.6875 78 C-53.08055697 78.02678476 -48.96592613 76.3779052 -44.6875 72.75 C-43.14473985 70.50848335 -41.96167979 68.3196144 -40.85546875 65.8359375 C-38.88764775 62.32150133 -36.44186868 61.00145623 -32.6875 59.75 C-25.63688918 59.27530541 -25.63688918 59.27530541 -22.6875 60.75 C-19.46459179 61.03025289 -17.37732475 61.12201263 -14.5 59.5703125 C-12.44228148 57.87430382 -12.44228148 57.87430382 -12.3671875 55.2265625 C-12.43164062 54.28554687 -12.49609375 53.34453125 -12.5625 52.375 C-12.8254622 48.22477056 -12.46262676 45.53418496 -10.6875 41.75 C-12.3375 40.1 -13.9875 38.45 -15.6875 36.75 C-17.1464426 37.22730838 -18.60463496 37.70691042 -20.0625 38.1875 C-20.87460938 38.45433594 -21.68671875 38.72117187 -22.5234375 38.99609375 C-24.69781799 39.70179729 -24.69781799 39.70179729 -26.6875 40.75 C-27.11095703 41.91595703 -27.11095703 41.91595703 -27.54296875 43.10546875 C-29.28711317 47.13545432 -31.97057487 48.46911957 -35.68359375 50.609375 C-40.13477009 52.29954859 -44.12418378 51.96326327 -48.8046875 51.47265625 C-51.92669953 51.45593554 -51.92669953 51.45593554 -54.0703125 54.24609375 C-54.60398437 55.07238281 -55.13765625 55.89867188 -55.6875 56.75 C-55.336875 57.28625 -54.98625 57.8225 -54.625 58.375 C-53.38915186 61.50581529 -53.89952775 63.52647716 -54.6875 66.75 C-55.6875 67.75 -55.6875 67.75 -58.625 67.875 C-61.6875 67.75 -61.6875 67.75 -63.6875 66.75 C-68.34025976 66.4447378 -68.34025976 66.4447378 -72.6875 67.75 C-74.68710012 67.789992 -76.68797242 67.79346799 -78.6875 67.75 C-80.04868461 65.50804887 -80.74888028 64.27173238 -80.4375 61.625 C-79.6875 59.75 -79.6875 59.75 -77.6875 57.75 C-79.27110765 55.03524403 -80.16521782 53.52298496 -82.6875 51.75 C-85.36920998 51.49939966 -85.36920998 51.49939966 -88.3125 51.75 C-95.17081229 52.11498444 -100.37962887 50.13517669 -105.6875 45.75 C-106.37287438 44.09093877 -107.04077577 42.42450589 -107.6875 40.75 C-109.48796021 39.31560133 -109.48796021 39.31560133 -111.625 38.4375 C-112.31464844 38.11136719 -113.00429687 37.78523438 -113.71484375 37.44921875 C-116.30763473 36.53018987 -117.97268917 36.07344665 -120.07421875 38.0625 Z M-112.6875 64.75 C-113.3371875 65.7709375 -113.3371875 65.7709375 -114 66.8125 C-115.6875 68.75 -115.6875 68.75 -118.875 69 C-119.803125 68.9175 -120.73125 68.835 -121.6875 68.75 C-126.5019069 85.61968177 -120.61537876 108.41853457 -112.9375 123.625 C-106.50577246 134.5245688 -96.97825874 143.84300384 -84.6875 147.75 C-83.6975 147.42 -82.7075 147.09 -81.6875 146.75 C-82.18378906 146.19054687 -82.68007812 145.63109375 -83.19140625 145.0546875 C-95.39888643 130.64661792 -100.94647911 114.58166278 -99.87353516 95.734375 C-99.46428862 91.36907863 -98.44796227 87.14318379 -97.43359375 82.88671875 C-95.42618342 75.42299793 -95.42618342 75.42299793 -97 68.1875 C-98.57178633 66.53384451 -98.57178633 66.53384451 -100.6875 66.75 C-100.6875 66.09 -100.6875 65.43 -100.6875 64.75 C-104.5106584 62.8384208 -108.74198165 63.43482722 -112.6875 64.75 Z M-33.6875 64.75 C-33.6875 65.41 -33.6875 66.07 -33.6875 66.75 C-34.6775 67.08 -35.6675 67.41 -36.6875 67.75 C-38.70659291 70.37482078 -38.69534285 71.67820772 -38.33203125 75.00390625 C-37.74463427 78.4179287 -36.97333925 81.70602731 -36.125 85.0625 C-32.10114496 103.6753073 -35.1201748 120.32934593 -44.6875 136.75 C-46.47000096 139.28988773 -48.31199097 141.70118654 -50.3046875 144.078125 C-51.76330966 145.7137464 -51.76330966 145.7137464 -52.6875 147.75 C-41.52162328 145.85278909 -32.50067344 138.9958885 -25.6796875 130.14453125 C-13.01589097 111.14883645 -11.47098228 90.83480763 -11.6875 68.75 C-12.80640625 68.78996094 -13.9253125 68.82992187 -15.078125 68.87109375 C-16.26921875 68.83113281 -17.4603125 68.79117188 -18.6875 68.75 C-20.4375 66.8125 -20.4375 66.8125 -21.6875 64.75 C-25.63301835 63.43482722 -29.8643416 62.8384208 -33.6875 64.75 Z M-88.6875 78.75 C-90.44828179 82.27156358 -89.872146 86.30891951 -89.875 90.1875 C-89.88724609 91.05955078 -89.89949219 91.93160156 -89.91210938 92.83007812 C-89.91404297 93.66861328 -89.91597656 94.50714844 -89.91796875 95.37109375 C-89.92207764 96.1386499 -89.92618652 96.90620605 -89.93041992 97.69702148 C-89.80800975 100.06007913 -89.80800975 100.06007913 -87.6875 102.75 C-87.295625 101.533125 -86.90375 100.31625 -86.5 99.0625 C-85.17721686 94.95491025 -82.81333207 92.67119495 -79.6875 89.75 C-79.51734375 90.72582031 -79.3471875 91.70164062 -79.171875 92.70703125 C-78.92953125 93.97933594 -78.6871875 95.25164062 -78.4375 96.5625 C-78.20546875 97.82707031 -77.9734375 99.09164062 -77.734375 100.39453125 C-76.62251844 103.95828046 -75.88639957 104.97209921 -72.6875 106.75 C-72.59662109 105.39455078 -72.59662109 105.39455078 -72.50390625 104.01171875 C-72.42011719 102.83222656 -72.33632812 101.65273437 -72.25 100.4375 C-72.16878906 99.26574219 -72.08757812 98.09398437 -72.00390625 96.88671875 C-71.6875 93.75 -71.6875 93.75 -70.6875 90.75 C-68.7075 90.42 -66.7275 90.09 -64.6875 89.75 C-62.53690691 93.28186832 -62.3077272 96.41287993 -62.0625 100.5 C-61.98773438 101.67046875 -61.91296875 102.8409375 -61.8359375 104.046875 C-61.78695312 104.93890625 -61.73796875 105.8309375 -61.6875 106.75 C-57.23013648 103.46562688 -56.26318136 100.92866508 -55.375 95.4375 C-55.12605689 93.54416202 -54.8904046 91.64882361 -54.6875 89.75 C-51.6875 90.75 -51.6875 90.75 -50.6875 92.3125 C-49.27176349 95.76335773 -47.97161797 99.24786008 -46.6875 102.75 C-43.18704646 97.49931969 -43.16772523 90.28866865 -44.07421875 84.1171875 C-44.53188919 82.30598109 -45.09674363 80.52226911 -45.6875 78.75 C-46.63625 79.245 -47.585 79.74 -48.5625 80.25 C-52.53553008 81.9711102 -55.97410985 81.93507313 -60.25 81.78515625 C-62.48803683 81.75287687 -64.48631917 81.94105073 -66.6875 82.3125 C-69.6875 82.75 -69.6875 82.75 -71.6875 81.75 C-73.25054501 81.75571497 -74.81359147 81.80326607 -76.375 81.875 C-81.27655728 81.94614016 -84.36895265 81.00315514 -88.6875 78.75 Z M-82.6875 106.75 C-85.311445 111.41361075 -85.63571407 115.5056468 -84.6875 120.75 C-82.34672487 126.11716192 -79.74296387 130.59894023 -74.5625 133.5 C-73.28375 133.5825 -72.005 133.665 -70.6875 133.75 C-69.68074219 133.83378906 -68.67398438 133.91757813 -67.63671875 134.00390625 C-62.57366659 134.09150231 -59.07667315 133.88414584 -55.0703125 130.61328125 C-50.58918904 125.02383722 -48.80808319 120.30600053 -49.11328125 113.16015625 C-49.76845084 110.41022675 -50.85196683 108.8709512 -52.6875 106.75 C-52.91824219 107.43707031 -53.14898437 108.12414062 -53.38671875 108.83203125 C-56.0424756 116.16947804 -56.0424756 116.16947804 -59.1875 119 C-61.6875 119.75 -61.6875 119.75 -63.75 118.875 C-64.389375 118.50375 -65.02875 118.1325 -65.6875 117.75 C-67.87453657 118.09172446 -69.60959366 118.71481649 -71.625 119.625 C-73.6875 119.75 -73.6875 119.75 -76.25 117.8125 C-79.14324743 114.17739425 -80.27039762 111.15047581 -81.6875 106.75 C-82.0175 106.75 -82.3475 106.75 -82.6875 106.75 Z " fill="#000000" transform="translate(194.6875,62.25)"/>
<path d="M0 0 C83.49 0 166.98 0 253 0 C253 84.48 253 168.96 253 256 C169.51 256 86.02 256 0 256 C0 171.52 0 87.04 0 0 Z M2 2 C2 85.16 2 168.32 2 254 C84.17 254 166.34 254 251 254 C251 170.84 251 87.68 251 2 C168.83 2 86.66 2 2 2 Z " fill="#000000" transform="translate(1,0)"/>
</svg>
