<?xml version="1.0" encoding="UTF-8"?>
<svg version="1.1" xmlns="http://www.w3.org/2000/svg" width="256" height="256">
<path d="M0 0 C10.87828791 7.51931813 18.75136363 16.9340234 22.4921875 29.72265625 C23.94167839 39.56806543 23.5228197 49.56146876 23.27734375 59.4765625 C23.18133425 67.4453508 23.2178178 75.73201818 28.4921875 82.16015625 C29.4821875 82.93359375 29.4821875 82.93359375 30.4921875 83.72265625 C32.3046875 85.16015625 32.3046875 85.16015625 33.4921875 86.72265625 C33.22680772 91.75572111 30.40761107 95.03507242 27.4921875 98.91015625 C24.23221945 103.15250349 24.23221945 103.15250349 21.4921875 107.72265625 C18.4296875 108.34765625 18.4296875 108.34765625 15.4921875 108.72265625 C15.7190625 109.48578125 15.9459375 110.24890625 16.1796875 111.03515625 C16.4921875 113.72265625 16.4921875 113.72265625 15.4296875 115.22265625 C13.80540588 116.4801646 12.15197305 117.69989595 10.4921875 118.91015625 C6.9783797 121.88944466 5.14113662 125.1586185 4.4921875 129.72265625 C4.74628467 132.03958532 5.0413901 134.3522174 5.3671875 136.66015625 C5.99738795 142.9554565 5.99738795 142.9554565 3.8125 146.2734375 C2.2526799 147.75185285 0.64203286 149.17824481 -1.01171875 150.55078125 C-4.42208395 153.51817257 -6.64145058 156.9912082 -9.09765625 160.75390625 C-10.5078125 162.72265625 -10.5078125 162.72265625 -12.5078125 163.72265625 C-13.93086203 163.83700632 -15.35893454 163.89198901 -16.78637695 163.91552734 C-17.67102127 163.93159027 -18.55566559 163.9476532 -19.46711731 163.96420288 C-23.51477302 164.0086534 -27.56226472 164.04971766 -31.61010742 164.07275391 C-33.74498393 164.08931466 -35.87980496 164.11660613 -38.0144043 164.15478516 C-41.0919268 164.20954958 -44.16814961 164.23142738 -47.24609375 164.24609375 C-48.19833328 164.26876312 -49.15057281 164.2914325 -50.13166809 164.31478882 C-54.74201021 164.30009289 -56.80197164 164.27948054 -60.52026367 161.34619141 C-61.17615479 160.4804248 -61.8320459 159.6146582 -62.5078125 158.72265625 C-63.1884375 157.89765625 -63.8690625 157.07265625 -64.5703125 156.22265625 C-65.2096875 155.39765625 -65.8490625 154.57265625 -66.5078125 153.72265625 C-68.70145166 150.92773604 -70.84733262 148.27243748 -73.4453125 145.84765625 C-75.58803318 143.64000464 -76.41543784 142.77102015 -76.5078125 139.72265625 C-76.0128125 138.33046875 -76.0128125 138.33046875 -75.5078125 136.91015625 C-73.86274268 131.66649621 -74.92187512 128.02974733 -77.1328125 123.09765625 C-79.51279574 119.19272079 -82.6858665 117.14812198 -86.5078125 114.72265625 C-86.1778125 112.74265625 -85.8478125 110.76265625 -85.5078125 108.72265625 C-86.26191406 108.64015625 -87.01601562 108.55765625 -87.79296875 108.47265625 C-91.12811012 107.55129345 -91.93950854 106.49326316 -93.9453125 103.72265625 C-94.53183594 102.913125 -95.11835937 102.10359375 -95.72265625 101.26953125 C-96.31175781 100.4290625 -96.90085937 99.58859375 -97.5078125 98.72265625 C-98.10722656 97.9234375 -98.70664063 97.12421875 -99.32421875 96.30078125 C-100.15759766 95.14835937 -100.15759766 95.14835937 -101.0078125 93.97265625 C-101.76578125 92.92851562 -101.76578125 92.92851562 -102.5390625 91.86328125 C-103.80219943 89.07215609 -103.514692 87.57711074 -102.5078125 84.72265625 C-101.7240625 84.47515625 -100.9403125 84.22765625 -100.1328125 83.97265625 C-97.39680583 83.00171903 -97.39680583 83.00171903 -96.546875 80.78125 C-95.76753138 78.43936101 -95.08887526 76.12150319 -94.5078125 73.72265625 C-94.33145264 73.00537354 -94.15509277 72.28809082 -93.97338867 71.54907227 C-93.39736737 68.05216688 -93.42194034 64.64312938 -93.48046875 61.11328125 C-93.49312193 59.62109613 -93.50548237 58.1289085 -93.51757812 56.63671875 C-93.54228556 54.30883773 -93.57019086 51.98109101 -93.60375977 49.65332031 C-93.82944312 32.92787343 -91.74446442 20.5252231 -79.82421875 7.9765625 C-58.4903273 -12.78170962 -25.13126323 -14.93362298 0 0 Z M-81.5078125 18.72265625 C-87.31642588 27.74834781 -86.56214232 38.90815401 -86.453125 49.23828125 C-86.43813965 51.00377319 -86.43813965 51.00377319 -86.42285156 52.80493164 C-86.39671298 55.15851981 -86.35509313 57.51200139 -86.29589844 59.86499023 C-86.19108929 67.55898504 -86.18453747 76.4407248 -91.11669922 82.7956543 C-92.88029034 84.83342162 -92.88029034 84.83342162 -92.4453125 88.47265625 C-91.54334832 93.82431036 -89.36114825 98.8693205 -85.5078125 102.72265625 C-81.36950261 102.42168826 -78.98934226 102.04367609 -75.5078125 99.72265625 C-72.6484375 99.2890625 -72.6484375 99.2890625 -69.5078125 99.72265625 C-66.8046875 101.875 -66.8046875 101.875 -64.2578125 104.66015625 C-61.22927655 108.14813245 -61.22927655 108.14813245 -57.5078125 110.72265625 C-53.77903396 110.78207902 -50.06402596 110.74372421 -46.3359375 110.68359375 C-41.90935353 110.63991036 -37.88437164 110.9888619 -33.5078125 111.72265625 C-32.5178125 111.39265625 -31.5278125 111.06265625 -30.5078125 110.72265625 C-28.4209408 110.80109455 -26.33406299 110.88276878 -24.24853516 110.99121094 C-15.27939681 111.58191506 -15.27939681 111.58191506 -7.6328125 107.47265625 C-5.90445926 105.60631068 -5.90445926 105.60631068 -4.5078125 103.72265625 C-1.09715419 99.81043054 -1.09715419 99.81043054 2.4296875 99.28515625 C5.82258268 99.76985556 7.60605471 100.94657453 10.4921875 102.72265625 C12.9921875 103.63932292 12.9921875 103.63932292 15.4921875 102.72265625 C19.15797582 98.34906442 21.99787152 92.93571015 22.8671875 87.28515625 C22.65003887 84.52436592 22.65003887 84.52436592 20.6171875 81.91015625 C14.78359134 73.15976201 16.34433959 62.34907761 16.53320312 52.28759766 C17.11476968 32.54442259 17.11476968 32.54442259 8.5 15.48046875 C-2.81939491 4.457976 -18.77029461 -2.29490972 -34.5703125 -2.71484375 C-52.22391298 -2.06682504 -69.95180215 4.9815094 -81.5078125 18.72265625 Z M-77.1328125 106.03515625 C-78.82364898 107.74748052 -78.82364898 107.74748052 -78.5078125 110.72265625 C-77.6003125 111.30015625 -76.6928125 111.87765625 -75.7578125 112.47265625 C-72.04039382 115.0462538 -69.89006793 117.44951231 -68.5078125 121.72265625 C-68.02555623 126.21239416 -68.05245188 130.65812654 -69.02734375 135.078125 C-69.86141154 138.90941202 -70.03768193 140.83774741 -67.96875 144.29296875 C-65.90943963 146.87674768 -63.75138012 149.29790705 -61.5078125 151.72265625 C-60.83347168 152.74327148 -60.15913086 153.76388672 -59.46435547 154.81542969 C-57.2091913 157.51172733 -55.61759541 158.19905498 -52.13574219 158.57836914 C-50.40149319 158.65147848 -48.66546299 158.68838162 -46.9296875 158.6953125 C-46.00367737 158.71291122 -45.07766724 158.73050995 -44.12359619 158.74864197 C-42.16701502 158.77458687 -40.21016479 158.78452861 -38.25341797 158.77954102 C-35.27761873 158.78511912 -32.31372386 158.88105641 -29.33984375 158.98242188 C-19.2334705 159.32960355 -19.2334705 159.32960355 -10.28320312 155.37451172 C-7.99965224 152.59207697 -6.25866737 149.85955988 -4.5078125 146.72265625 C-3.78215088 145.82474365 -3.05648926 144.92683105 -2.30883789 144.00170898 C-0.32347836 141.91430192 -0.32347836 141.91430192 -0.30078125 139.51171875 C-0.43097656 138.79757813 -0.56117188 138.0834375 -0.6953125 137.34765625 C-0.81777344 136.56777344 -0.94023437 135.78789062 -1.06640625 134.984375 C-1.44598385 133.03945968 -1.84958025 131.09925944 -2.2578125 129.16015625 C-2.58142011 124.71055159 -1.64703352 121.60917994 0.4921875 117.72265625 C3.01328647 114.82339243 5.30027176 112.85060008 8.4921875 110.72265625 C7.91873813 107.85540939 7.630736 106.86120475 5.4921875 104.72265625 C4.5021875 104.72265625 3.5121875 104.72265625 2.4921875 104.72265625 C-4.23863171 112.9370667 -8.95742986 123.08192513 -9.5078125 133.72265625 C-9.17281171 136.08959342 -9.17281171 136.08959342 -8.5078125 137.72265625 C-9.838125 138.15578125 -9.838125 138.15578125 -11.1953125 138.59765625 C-14.37347789 139.61238375 -14.37347789 139.61238375 -16.78027344 140.77197266 C-21.86035636 142.54263529 -27.30586597 142.09449623 -32.63525391 142.09326172 C-34.73814099 142.09761552 -36.83889252 142.13391637 -38.94140625 142.171875 C-45.88545463 142.22811796 -51.70706607 141.98338355 -57.89746094 138.58447266 C-59.49729521 137.56537277 -59.49729521 137.56537277 -61.5078125 137.72265625 C-61.2603125 136.83578125 -61.0128125 135.94890625 -60.7578125 135.03515625 C-59.42751717 125.51101285 -65.09551433 115.19884412 -70.5078125 107.72265625 C-71.97496024 105.96729247 -71.97496024 105.96729247 -73.5078125 104.72265625 C-75.59663992 104.51321055 -75.59663992 104.51321055 -77.1328125 106.03515625 Z M-59.5078125 114.72265625 C-59.86119873 117.6911006 -60.0495807 119.87863843 -58.39453125 122.45703125 C-57.15278082 123.92614444 -55.83443332 125.32970439 -54.5078125 126.72265625 C-53.5178125 126.39265625 -52.5278125 126.06265625 -51.5078125 125.72265625 C-51.8378125 122.75265625 -52.1678125 119.78265625 -52.5078125 116.72265625 C-54.8178125 116.06265625 -57.1278125 115.40265625 -59.5078125 114.72265625 Z M-48.5078125 115.72265625 C-48.81694225 119.66406061 -48.85471855 122.08434913 -46.9453125 125.59765625 C-43.84584014 128.29976035 -41.54933656 128.4894914 -37.5078125 128.72265625 C-36.1405259 124.21061048 -36.70930718 121.05541906 -38.5078125 116.72265625 C-41.89136069 114.7272304 -44.85229223 113.89489611 -48.5078125 115.72265625 Z M-31.5078125 116.72265625 C-34.15570626 120.75205979 -33.40512863 124.14634398 -32.5078125 128.72265625 C-28.46628844 128.4894914 -26.16978486 128.29976035 -23.0703125 125.59765625 C-21.16090645 122.08434913 -21.19868275 119.66406061 -21.5078125 115.72265625 C-25.32550244 114.25431397 -27.87731382 114.98633079 -31.5078125 116.72265625 Z M-17.5078125 116.72265625 C-17.8378125 120.02265625 -18.1678125 123.32265625 -18.5078125 126.72265625 C-14.63593699 125.46691284 -12.43943733 124.38257698 -10.5078125 120.72265625 C-10.25694526 117.55533204 -10.25694526 117.55533204 -10.5078125 114.72265625 C-12.86068864 114.72265625 -15.30154474 115.97158637 -17.5078125 116.72265625 Z M-57.5078125 128.72265625 C-57.88170132 132.86752409 -57.88170132 132.86752409 -56.2578125 136.53515625 C-54.34189448 137.83524347 -52.77810784 138.33122602 -50.5078125 138.72265625 C-50.03345284 133.60830444 -50.03345284 133.60830444 -52.4453125 129.28515625 C-54.86852832 127.32519075 -54.86852832 127.32519075 -57.5078125 128.72265625 Z M-17.5078125 128.72265625 C-19.9372641 132.36683365 -19.66960825 134.43506897 -19.5078125 138.72265625 C-16.59263958 137.64864517 -14.72971074 136.94455449 -12.5078125 134.72265625 C-12.34100141 131.63917799 -12.34100141 131.63917799 -12.5078125 128.72265625 C-14.92401073 128.47234648 -14.92401073 128.47234648 -17.5078125 128.72265625 Z M-47.5078125 129.72265625 C-47.5490625 131.00140625 -47.5903125 132.28015625 -47.6328125 133.59765625 C-47.65601563 134.31695312 -47.67921875 135.03625 -47.703125 135.77734375 C-47.69112939 137.9612927 -47.69112939 137.9612927 -45.5078125 139.72265625 C-42.81941865 139.99257531 -40.21639314 139.81002982 -37.5078125 139.72265625 C-37.5078125 137.74265625 -37.5078125 135.76265625 -37.5078125 133.72265625 C-38.6009375 133.06265625 -39.6940625 132.40265625 -40.8203125 131.72265625 C-41.43519531 131.35140625 -42.05007812 130.98015625 -42.68359375 130.59765625 C-44.62143176 129.50641626 -44.62143176 129.50641626 -47.5078125 129.72265625 Z M-29.1953125 131.72265625 C-30.835 132.71265625 -30.835 132.71265625 -32.5078125 133.72265625 C-32.5078125 135.70265625 -32.5078125 137.68265625 -32.5078125 139.72265625 C-28.4977191 139.90130256 -28.4977191 139.90130256 -24.5078125 139.72265625 C-22.32449561 137.9612927 -22.32449561 137.9612927 -22.3125 135.77734375 C-22.33570313 135.05804688 -22.35890625 134.33875 -22.3828125 133.59765625 C-22.4240625 132.31890625 -22.4653125 131.04015625 -22.5078125 129.72265625 C-25.6821747 129.72265625 -26.57073712 130.13800696 -29.1953125 131.72265625 Z " fill="#000000" transform="translate(162.5078125,52.27734375)"/>
<path d="M0 0 C83.49 0 166.98 0 253 0 C253 84.48 253 168.96 253 256 C169.51 256 86.02 256 0 256 C0 171.52 0 87.04 0 0 Z M2 2 C2 85.16 2 168.32 2 254 C84.17 254 166.34 254 251 254 C251 170.84 251 87.68 251 2 C168.83 2 86.66 2 2 2 Z " fill="#000000" transform="translate(1,0)"/>
<path d="M0 0 C2.39871912 1.58068347 3.71434361 2.99989095 5.19921875 5.44921875 C5.39812909 9.82524628 3.82150984 12.24942111 1.13671875 15.51171875 C-1.93240096 18.82712584 -5.10588587 21.13132137 -9.01953125 23.3515625 C-11.01280783 24.47421575 -11.01280783 24.47421575 -12.98828125 26.76171875 C-14.80078125 28.44921875 -14.80078125 28.44921875 -17.1796875 28.7890625 C-20.56436541 28.35021455 -21.40641531 27.29902524 -23.55078125 24.69921875 C-24.14375 24.003125 -24.73671875 23.30703125 -25.34765625 22.58984375 C-26.79881821 20.45211054 -27.45696101 18.99348856 -27.80078125 16.44921875 C-26.69259753 12.7216917 -24.71816689 9.61556154 -22.73828125 6.2890625 C-21.58985299 4.19680746 -21.58985299 4.19680746 -20.80078125 0.63671875 C-19.80078125 -2.55078125 -19.80078125 -2.55078125 -18.17578125 -4.05078125 C-11.36545024 -5.48453515 -5.98275455 -2.97728916 0 0 Z " fill="#000000" transform="translate(111.80078125,112.55078125)"/>
<path d="M0 0 C2.99087833 2.67042708 3.94472611 6.34806521 5.23828125 10.05078125 C6.00069261 12.19103039 6.00069261 12.19103039 7.6875 14.625 C9.48365321 17.875182 9.70829934 19.31684343 9 23 C6.89097112 26.2002677 4.51564021 29.11214772 2 32 C-3.2340104 31.74468242 -5.60279578 29.95127448 -9.27734375 26.53515625 C-11.11882508 24.80263003 -11.11882508 24.80263003 -14.0625 23.125 C-17.92686868 20.32949925 -20.76510413 17.23325167 -23 13 C-23.06209194 9.70912695 -22.86079432 8.06693923 -20.79296875 5.50390625 C-15.21201289 0.82271233 -7.04236336 -2.54723781 0 0 Z " fill="#000000" transform="translate(161,109)"/>
<path d="M0 0 C1.2684375 0.12375 1.2684375 0.12375 2.5625 0.25 C4.45476626 3.08839939 5.10207444 4.89141166 5.9375 8.125 C7.1205396 12.2747389 8.51339474 15.09575318 11.5625 18.25 C7.86684783 24.90217391 7.86684783 24.90217391 4.5625 27.25 C1.37994847 28.02864368 -1.25804826 28.05418294 -4.4375 27.25 C-7.333876 25.34161582 -9.68592393 23.26320079 -11.4375 20.25 C-11.14628245 17.28742142 -10.3034624 16.05787944 -8.5625 13.5625 C-6.34952849 10.11286795 -5.21784533 6.99785567 -4.05078125 3.10546875 C-3.14455902 0.3637136 -2.95355107 0.30292831 0 0 Z " fill="#000000" transform="translate(127.4375,122.75)"/>
</svg>
